<mxfile host="65bd71144e" pages="7" scale="1" border="5" disableSvgWarning="true">
    <diagram id="5Dg04Nr58mkKkYB7gLD7" name="moveos">
        <mxGraphModel dx="1092" dy="551" grid="1" gridSize="10" guides="1" tooltips="1" connect="1" arrows="1" fold="1" page="1" pageScale="1" pageWidth="850" pageHeight="1100" math="0" shadow="0">
            <root>
                <mxCell id="0"/>
                <mxCell id="1" parent="0"/>
                <mxCell id="wN5z0VdmhAgD4SA51VTo-1" value="" style="rounded=0;whiteSpace=wrap;html=1;" parent="1" vertex="1">
                    <mxGeometry x="100" y="510" width="650" height="300" as="geometry"/>
                </mxCell>
                <mxCell id="wN5z0VdmhAgD4SA51VTo-2" value="MoveOS" style="rounded=0;whiteSpace=wrap;html=1;dashed=1;strokeColor=none;" parent="1" vertex="1">
                    <mxGeometry x="119.76" y="517" width="600.4705882352941" height="40" as="geometry"/>
                </mxCell>
                <mxCell id="wN5z0VdmhAgD4SA51VTo-3" value="MoveVM" style="rounded=0;whiteSpace=wrap;html=1;" parent="1" vertex="1">
                    <mxGeometry x="112" y="760" width="298" height="40" as="geometry"/>
                </mxCell>
                <mxCell id="wN5z0VdmhAgD4SA51VTo-4" value="" style="rounded=0;whiteSpace=wrap;html=1;dashed=1;" parent="1" vertex="1">
                    <mxGeometry x="112" y="610" width="618" height="140" as="geometry"/>
                </mxCell>
                <mxCell id="wN5z0VdmhAgD4SA51VTo-6" value="ChainFramework Adapter" style="rounded=1;whiteSpace=wrap;html=1;" parent="1" vertex="1">
                    <mxGeometry x="130" y="630" width="580" height="42.27" as="geometry"/>
                </mxCell>
                <mxCell id="wN5z0VdmhAgD4SA51VTo-9" value="Object Extension" style="rounded=1;whiteSpace=wrap;html=1;" parent="1" vertex="1">
                    <mxGeometry x="432" y="690" width="131" height="52.27" as="geometry"/>
                </mxCell>
                <mxCell id="wN5z0VdmhAgD4SA51VTo-10" value="MoveOS Framework&lt;br&gt;(Transaction Abstraction, Account Abstraction)" style="rounded=1;whiteSpace=wrap;html=1;" parent="1" vertex="1">
                    <mxGeometry x="130" y="690" width="280" height="52.27" as="geometry"/>
                </mxCell>
                <mxCell id="wN5z0VdmhAgD4SA51VTo-13" value="Table Extension" style="rounded=1;whiteSpace=wrap;html=1;" parent="1" vertex="1">
                    <mxGeometry x="581" y="690" width="131" height="52.27" as="geometry"/>
                </mxCell>
                <mxCell id="wN5z0VdmhAgD4SA51VTo-16" value="StateDB&lt;br&gt;(State Query&amp;amp;State Proof)" style="rounded=0;whiteSpace=wrap;html=1;" parent="1" vertex="1">
                    <mxGeometry x="425" y="760" width="309" height="40" as="geometry"/>
                </mxCell>
                <mxCell id="tf0aQhImynZTG2urDEBp-1" value="Parallel Execution Engine" style="rounded=1;whiteSpace=wrap;html=1;" parent="1" vertex="1">
                    <mxGeometry x="110" y="557" width="620" height="42.27" as="geometry"/>
                </mxCell>
            </root>
        </mxGraphModel>
    </diagram>
    <diagram id="2alpfbnSqNpXs6ikViOz" name="omo">
        <mxGraphModel dx="1192" dy="716" grid="1" gridSize="10" guides="1" tooltips="1" connect="1" arrows="1" fold="1" page="1" pageScale="1" pageWidth="850" pageHeight="1100" math="0" shadow="0">
            <root>
                <mxCell id="0"/>
                <mxCell id="1" parent="0"/>
                <mxCell id="XdkposplsFSqHSL-H2rm-19" value="OMO&lt;br&gt;&amp;nbsp;(MIPS Emulator)" style="whiteSpace=wrap;html=1;aspect=fixed;verticalAlign=top;" parent="1" vertex="1">
                    <mxGeometry x="560" y="220.5" width="151.5" height="151.5" as="geometry"/>
                </mxCell>
                <mxCell id="XdkposplsFSqHSL-H2rm-2" value="&lt;br&gt;MoveVM" style="ellipse;whiteSpace=wrap;html=1;aspect=fixed;verticalAlign=top;" parent="1" vertex="1">
                    <mxGeometry x="286.5" y="382" width="150" height="150" as="geometry"/>
                </mxCell>
                <mxCell id="XdkposplsFSqHSL-H2rm-3" value="MIPS.move" style="rounded=0;whiteSpace=wrap;html=1;" parent="1" vertex="1">
                    <mxGeometry x="304" y="433" width="115" height="60" as="geometry"/>
                </mxCell>
                <mxCell id="XdkposplsFSqHSL-H2rm-7" value="MoveVM" style="rounded=0;whiteSpace=wrap;html=1;" parent="1" vertex="1">
                    <mxGeometry x="575" y="277" width="115" height="60" as="geometry"/>
                </mxCell>
                <mxCell id="XdkposplsFSqHSL-H2rm-10" value="Challenger" style="text;html=1;align=center;verticalAlign=middle;resizable=0;points=[];autosize=1;strokeColor=none;fillColor=none;fontSize=16;" parent="1" vertex="1">
                    <mxGeometry x="708" y="281" width="100" height="30" as="geometry"/>
                </mxCell>
                <mxCell id="XdkposplsFSqHSL-H2rm-11" value="Defender" style="text;html=1;align=center;verticalAlign=middle;resizable=0;points=[];autosize=1;strokeColor=none;fillColor=none;fontSize=16;" parent="1" vertex="1">
                    <mxGeometry x="710" y="567" width="90" height="30" as="geometry"/>
                </mxCell>
                <mxCell id="XdkposplsFSqHSL-H2rm-12" value="" style="endArrow=classic;startArrow=classic;html=1;rounded=0;" parent="1" edge="1">
                    <mxGeometry width="50" height="50" relative="1" as="geometry">
                        <mxPoint x="639" y="494" as="sourcePoint"/>
                        <mxPoint x="639" y="394" as="targetPoint"/>
                    </mxGeometry>
                </mxCell>
                <mxCell id="wgEDJszfuv_QJwVBHLMD-2" value="&lt;span style=&quot;font-size: 16px; background-color: rgb(251, 251, 251);&quot;&gt;Interactive Fraud Proof&lt;/span&gt;" style="edgeLabel;html=1;align=center;verticalAlign=middle;resizable=0;points=[];" parent="XdkposplsFSqHSL-H2rm-12" vertex="1" connectable="0">
                    <mxGeometry x="0.0614" y="2" relative="1" as="geometry">
                        <mxPoint as="offset"/>
                    </mxGeometry>
                </mxCell>
                <mxCell id="XdkposplsFSqHSL-H2rm-14" value="" style="endArrow=none;html=1;rounded=0;dashed=1;" parent="1" edge="1">
                    <mxGeometry width="50" height="50" relative="1" as="geometry">
                        <mxPoint x="464" y="680" as="sourcePoint"/>
                        <mxPoint x="464" y="161" as="targetPoint"/>
                    </mxGeometry>
                </mxCell>
                <mxCell id="XdkposplsFSqHSL-H2rm-15" value="Off-Chain" style="text;html=1;align=center;verticalAlign=middle;resizable=0;points=[];autosize=1;strokeColor=none;fillColor=none;fontSize=16;fontStyle=1" parent="1" vertex="1">
                    <mxGeometry x="582.5" y="150" width="100" height="30" as="geometry"/>
                </mxCell>
                <mxCell id="XdkposplsFSqHSL-H2rm-16" value="On-Chain" style="text;html=1;align=center;verticalAlign=middle;resizable=0;points=[];autosize=1;strokeColor=none;fillColor=none;fontSize=16;fontStyle=1" parent="1" vertex="1">
                    <mxGeometry x="312.5" y="150" width="100" height="30" as="geometry"/>
                </mxCell>
                <mxCell id="XdkposplsFSqHSL-H2rm-18" value="Arbitrate" style="text;html=1;align=center;verticalAlign=middle;resizable=0;points=[];autosize=1;strokeColor=none;fillColor=none;" parent="1" vertex="1">
                    <mxGeometry x="483" y="408" width="70" height="30" as="geometry"/>
                </mxCell>
                <mxCell id="R2SHoENa1AMxqyAqXyUj-1" value="or" style="text;html=1;strokeColor=none;fillColor=none;align=center;verticalAlign=middle;whiteSpace=wrap;rounded=0;" parent="1" vertex="1">
                    <mxGeometry x="328.5" y="355" width="60" height="30" as="geometry"/>
                </mxCell>
                <mxCell id="mZSC6QQ1Ej0cdaxBKfZL-1" value="&lt;br&gt;EVM" style="ellipse;whiteSpace=wrap;html=1;aspect=fixed;verticalAlign=top;" parent="1" vertex="1">
                    <mxGeometry x="286" y="207" width="150" height="150" as="geometry"/>
                </mxCell>
                <mxCell id="mZSC6QQ1Ej0cdaxBKfZL-2" value="MIPS.sol" style="rounded=0;whiteSpace=wrap;html=1;" parent="1" vertex="1">
                    <mxGeometry x="301" y="253" width="115" height="60" as="geometry"/>
                </mxCell>
                <mxCell id="wgEDJszfuv_QJwVBHLMD-1" value="" style="endArrow=classic;html=1;" parent="1" edge="1">
                    <mxGeometry width="50" height="50" relative="1" as="geometry">
                        <mxPoint x="550" y="439" as="sourcePoint"/>
                        <mxPoint x="476" y="439" as="targetPoint"/>
                    </mxGeometry>
                </mxCell>
                <mxCell id="QksyU1p-A5cM2u_yoaru-2" value="&lt;br&gt;Arbitrary VM" style="ellipse;whiteSpace=wrap;html=1;aspect=fixed;verticalAlign=top;" parent="1" vertex="1">
                    <mxGeometry x="285.5" y="559" width="150" height="150" as="geometry"/>
                </mxCell>
                <mxCell id="QksyU1p-A5cM2u_yoaru-3" value="MIPS Contract" style="rounded=0;whiteSpace=wrap;html=1;" parent="1" vertex="1">
                    <mxGeometry x="303" y="610" width="115" height="60" as="geometry"/>
                </mxCell>
                <mxCell id="QksyU1p-A5cM2u_yoaru-4" value="or" style="text;html=1;strokeColor=none;fillColor=none;align=center;verticalAlign=middle;whiteSpace=wrap;rounded=0;" parent="1" vertex="1">
                    <mxGeometry x="330.5" y="530" width="60" height="30" as="geometry"/>
                </mxCell>
                <mxCell id="B_G0NRVPA1ljCq9yVG63-4" value="MoveVM" style="rounded=0;whiteSpace=wrap;html=1;" parent="1" vertex="1">
                    <mxGeometry x="575" y="575" width="115" height="60" as="geometry"/>
                </mxCell>
                <mxCell id="B_G0NRVPA1ljCq9yVG63-5" value="OMO&lt;br&gt;&amp;nbsp;(MIPS Emulator)" style="whiteSpace=wrap;html=1;aspect=fixed;verticalAlign=top;" parent="1" vertex="1">
                    <mxGeometry x="560" y="518.5" width="151.5" height="151.5" as="geometry"/>
                </mxCell>
                <mxCell id="B_G0NRVPA1ljCq9yVG63-6" value="MoveVM" style="rounded=0;whiteSpace=wrap;html=1;" parent="1" vertex="1">
                    <mxGeometry x="578.25" y="575" width="115" height="60" as="geometry"/>
                </mxCell>
            </root>
        </mxGraphModel>
    </diagram>
    <diagram id="JpEhz7xsoWTMopCF3eo8" name="statedb">
        <mxGraphModel dx="1192" dy="716" grid="1" gridSize="10" guides="1" tooltips="1" connect="1" arrows="1" fold="1" page="1" pageScale="1" pageWidth="850" pageHeight="1100" background="#ffffff" math="0" shadow="0">
            <root>
                <mxCell id="0"/>
                <mxCell id="1" parent="0"/>
                <mxCell id="EfCglWQtfxGPOwnAxTzV-20" style="edgeStyle=none;html=1;exitX=0.5;exitY=1;exitDx=0;exitDy=0;fontSize=8;endArrow=none;endFill=0;" parent="1" source="EfCglWQtfxGPOwnAxTzV-1" target="EfCglWQtfxGPOwnAxTzV-4" edge="1">
                    <mxGeometry relative="1" as="geometry"/>
                </mxCell>
                <mxCell id="EfCglWQtfxGPOwnAxTzV-22" value="ObjectID(Hash(Address+0))" style="edgeLabel;html=1;align=center;verticalAlign=middle;resizable=0;points=[];fontSize=8;" parent="EfCglWQtfxGPOwnAxTzV-20" vertex="1" connectable="0">
                    <mxGeometry x="0.0121" relative="1" as="geometry">
                        <mxPoint as="offset"/>
                    </mxGeometry>
                </mxCell>
                <mxCell id="EfCglWQtfxGPOwnAxTzV-21" style="edgeStyle=none;html=1;exitX=0.5;exitY=1;exitDx=0;exitDy=0;entryX=0.5;entryY=0;entryDx=0;entryDy=0;fontSize=8;endArrow=none;endFill=0;" parent="1" source="EfCglWQtfxGPOwnAxTzV-1" target="EfCglWQtfxGPOwnAxTzV-8" edge="1">
                    <mxGeometry relative="1" as="geometry"/>
                </mxCell>
                <mxCell id="EfCglWQtfxGPOwnAxTzV-37" value="ObjectID" style="edgeStyle=none;html=1;exitX=0.5;exitY=1;exitDx=0;exitDy=0;entryX=0.25;entryY=0;entryDx=0;entryDy=0;fontSize=8;endArrow=none;endFill=0;" parent="1" source="EfCglWQtfxGPOwnAxTzV-1" target="EfCglWQtfxGPOwnAxTzV-34" edge="1">
                    <mxGeometry relative="1" as="geometry"/>
                </mxCell>
                <mxCell id="d0_G30S1BKhN1SL5t5LG-12" style="edgeStyle=none;rounded=0;html=1;exitX=0.75;exitY=1;exitDx=0;exitDy=0;entryX=0.5;entryY=0;entryDx=0;entryDy=0;endArrow=none;endFill=0;" parent="1" source="EfCglWQtfxGPOwnAxTzV-1" target="d0_G30S1BKhN1SL5t5LG-4" edge="1">
                    <mxGeometry relative="1" as="geometry"/>
                </mxCell>
                <mxCell id="d0_G30S1BKhN1SL5t5LG-13" value="ObjectID(Address)" style="edgeLabel;html=1;align=center;verticalAlign=middle;resizable=0;points=[];fontSize=8;" parent="d0_G30S1BKhN1SL5t5LG-12" vertex="1" connectable="0">
                    <mxGeometry x="-0.0159" y="2" relative="1" as="geometry">
                        <mxPoint as="offset"/>
                    </mxGeometry>
                </mxCell>
                <mxCell id="EfCglWQtfxGPOwnAxTzV-1" value="State Root(SMT)" style="rounded=0;whiteSpace=wrap;html=1;fontSize=8;" parent="1" vertex="1">
                    <mxGeometry x="500" y="230" width="104.5" height="20" as="geometry"/>
                </mxCell>
                <mxCell id="EfCglWQtfxGPOwnAxTzV-4" value="Object&amp;lt;TableInfo&amp;gt;&lt;br&gt;(ResourceTable)" style="swimlane;fontStyle=0;childLayout=stackLayout;horizontal=1;startSize=30;horizontalStack=0;resizeParent=1;resizeParentMax=0;resizeLast=0;collapsible=1;marginBottom=0;whiteSpace=wrap;html=1;fontSize=8;" parent="1" vertex="1">
                    <mxGeometry x="470" y="400" width="90" height="70" as="geometry">
                        <mxRectangle x="270" y="470" width="90" height="30" as="alternateBounds"/>
                    </mxGeometry>
                </mxCell>
                <mxCell id="EfCglWQtfxGPOwnAxTzV-5" value="ObjectID" style="text;strokeColor=default;fillColor=none;align=left;verticalAlign=middle;spacingLeft=4;spacingRight=4;overflow=hidden;points=[[0,0.5],[1,0.5]];portConstraint=eastwest;rotatable=0;whiteSpace=wrap;html=1;fontSize=8;dashed=1;" parent="EfCglWQtfxGPOwnAxTzV-4" vertex="1">
                    <mxGeometry y="30" width="90" height="20" as="geometry"/>
                </mxCell>
                <mxCell id="EfCglWQtfxGPOwnAxTzV-6" value="StateRoot" style="text;strokeColor=default;fillColor=none;align=left;verticalAlign=middle;spacingLeft=4;spacingRight=4;overflow=hidden;points=[[0,0.5],[1,0.5]];portConstraint=eastwest;rotatable=0;whiteSpace=wrap;html=1;fontSize=8;dashed=1;" parent="EfCglWQtfxGPOwnAxTzV-4" vertex="1">
                    <mxGeometry y="50" width="90" height="20" as="geometry"/>
                </mxCell>
                <mxCell id="EfCglWQtfxGPOwnAxTzV-8" value="Object&amp;lt;TableInfo&amp;gt;&lt;br&gt;(ModuleTable)" style="swimlane;fontStyle=0;childLayout=stackLayout;horizontal=1;startSize=30;horizontalStack=0;resizeParent=1;resizeParentMax=0;resizeLast=0;collapsible=1;marginBottom=0;whiteSpace=wrap;html=1;fontSize=8;" parent="1" vertex="1">
                    <mxGeometry x="604.5" y="400" width="90" height="70" as="geometry">
                        <mxRectangle x="270" y="470" width="90" height="30" as="alternateBounds"/>
                    </mxGeometry>
                </mxCell>
                <mxCell id="EfCglWQtfxGPOwnAxTzV-9" value="ObjectID" style="text;strokeColor=default;fillColor=none;align=left;verticalAlign=middle;spacingLeft=4;spacingRight=4;overflow=hidden;points=[[0,0.5],[1,0.5]];portConstraint=eastwest;rotatable=0;whiteSpace=wrap;html=1;fontSize=8;dashed=1;" parent="EfCglWQtfxGPOwnAxTzV-8" vertex="1">
                    <mxGeometry y="30" width="90" height="20" as="geometry"/>
                </mxCell>
                <mxCell id="EfCglWQtfxGPOwnAxTzV-10" value="StateRoot" style="text;strokeColor=default;fillColor=none;align=left;verticalAlign=middle;spacingLeft=4;spacingRight=4;overflow=hidden;points=[[0,0.5],[1,0.5]];portConstraint=eastwest;rotatable=0;whiteSpace=wrap;html=1;fontSize=8;dashed=1;" parent="EfCglWQtfxGPOwnAxTzV-8" vertex="1">
                    <mxGeometry y="50" width="90" height="20" as="geometry"/>
                </mxCell>
                <mxCell id="EfCglWQtfxGPOwnAxTzV-17" value="StructType1" style="edgeStyle=none;html=1;exitX=0.25;exitY=1;exitDx=0;exitDy=0;entryX=0.25;entryY=0;entryDx=0;entryDy=0;fontSize=8;endArrow=none;endFill=0;" parent="1" source="EfCglWQtfxGPOwnAxTzV-14" edge="1">
                    <mxGeometry relative="1" as="geometry">
                        <mxPoint x="342.5" y="580" as="targetPoint"/>
                    </mxGeometry>
                </mxCell>
                <mxCell id="EfCglWQtfxGPOwnAxTzV-19" value="rooch_framework::account::Account" style="edgeStyle=none;html=1;exitX=0.5;exitY=1;exitDx=0;exitDy=0;entryX=0.5;entryY=0;entryDx=0;entryDy=0;fontSize=8;endArrow=none;endFill=0;" parent="1" source="EfCglWQtfxGPOwnAxTzV-14" target="EfCglWQtfxGPOwnAxTzV-40" edge="1">
                    <mxGeometry x="0.6593" y="30" relative="1" as="geometry">
                        <mxPoint x="432" y="580" as="targetPoint"/>
                        <mxPoint as="offset"/>
                    </mxGeometry>
                </mxCell>
                <mxCell id="EfCglWQtfxGPOwnAxTzV-14" value="State Root(SMT)" style="rounded=0;whiteSpace=wrap;html=1;fontSize=8;" parent="1" vertex="1">
                    <mxGeometry x="340" y="490" width="104.5" height="20" as="geometry"/>
                </mxCell>
                <mxCell id="EfCglWQtfxGPOwnAxTzV-23" value="ObjectID(Hash(Address+1))" style="edgeLabel;html=1;align=center;verticalAlign=middle;resizable=0;points=[];fontSize=8;" parent="1" vertex="1" connectable="0">
                    <mxGeometry x="630.0009868747195" y="349.99503162891006" as="geometry"/>
                </mxCell>
                <mxCell id="EfCglWQtfxGPOwnAxTzV-24" value="ModuleName1" style="edgeStyle=none;html=1;exitX=0.25;exitY=1;exitDx=0;exitDy=0;entryX=0.25;entryY=0;entryDx=0;entryDy=0;fontSize=8;endArrow=none;endFill=0;" parent="1" source="EfCglWQtfxGPOwnAxTzV-26" target="EfCglWQtfxGPOwnAxTzV-27" edge="1">
                    <mxGeometry relative="1" as="geometry"/>
                </mxCell>
                <mxCell id="EfCglWQtfxGPOwnAxTzV-25" value="ModuleName2" style="edgeStyle=none;html=1;exitX=0.5;exitY=1;exitDx=0;exitDy=0;entryX=0.75;entryY=0;entryDx=0;entryDy=0;fontSize=8;endArrow=none;endFill=0;" parent="1" source="EfCglWQtfxGPOwnAxTzV-26" target="EfCglWQtfxGPOwnAxTzV-28" edge="1">
                    <mxGeometry relative="1" as="geometry"/>
                </mxCell>
                <mxCell id="EfCglWQtfxGPOwnAxTzV-26" value="State Root(SMT)" style="rounded=0;whiteSpace=wrap;html=1;fontSize=8;" parent="1" vertex="1">
                    <mxGeometry x="657" y="540" width="104.5" height="20" as="geometry"/>
                </mxCell>
                <mxCell id="EfCglWQtfxGPOwnAxTzV-27" value="ByteCode1" style="rounded=0;whiteSpace=wrap;html=1;fontSize=8;" parent="1" vertex="1">
                    <mxGeometry x="647" y="630" width="50" height="20" as="geometry"/>
                </mxCell>
                <mxCell id="EfCglWQtfxGPOwnAxTzV-28" value="ByteCode2" style="rounded=0;whiteSpace=wrap;html=1;fontSize=8;" parent="1" vertex="1">
                    <mxGeometry x="711.5" y="630" width="50" height="20" as="geometry"/>
                </mxCell>
                <mxCell id="EfCglWQtfxGPOwnAxTzV-29" style="edgeStyle=none;html=1;entryX=0.5;entryY=0;entryDx=0;entryDy=0;fontSize=8;endArrow=classic;endFill=1;exitX=1;exitY=0.5;exitDx=0;exitDy=0;rounded=0;" parent="1" source="EfCglWQtfxGPOwnAxTzV-10" target="EfCglWQtfxGPOwnAxTzV-26" edge="1">
                    <mxGeometry relative="1" as="geometry">
                        <Array as="points">
                            <mxPoint x="710" y="460"/>
                        </Array>
                    </mxGeometry>
                </mxCell>
                <mxCell id="EfCglWQtfxGPOwnAxTzV-30" style="edgeStyle=none;html=1;entryX=0.5;entryY=0;entryDx=0;entryDy=0;fontSize=8;endArrow=classic;endFill=1;exitX=0;exitY=0.5;exitDx=0;exitDy=0;rounded=0;" parent="1" source="EfCglWQtfxGPOwnAxTzV-6" target="EfCglWQtfxGPOwnAxTzV-14" edge="1">
                    <mxGeometry relative="1" as="geometry">
                        <Array as="points">
                            <mxPoint x="392" y="460"/>
                        </Array>
                    </mxGeometry>
                </mxCell>
                <mxCell id="EfCglWQtfxGPOwnAxTzV-31" value="MoveStruct" style="swimlane;fontStyle=0;childLayout=stackLayout;horizontal=1;startSize=30;horizontalStack=0;resizeParent=1;resizeParentMax=0;resizeLast=0;collapsible=1;marginBottom=0;whiteSpace=wrap;html=1;fontSize=8;" parent="1" vertex="1">
                    <mxGeometry x="290" y="580" width="90" height="70" as="geometry">
                        <mxRectangle x="270" y="470" width="90" height="30" as="alternateBounds"/>
                    </mxGeometry>
                </mxCell>
                <mxCell id="EfCglWQtfxGPOwnAxTzV-32" value="ObjectID" style="text;strokeColor=default;fillColor=none;align=left;verticalAlign=middle;spacingLeft=4;spacingRight=4;overflow=hidden;points=[[0,0.5],[1,0.5]];portConstraint=eastwest;rotatable=0;whiteSpace=wrap;html=1;fontSize=8;dashed=1;" parent="EfCglWQtfxGPOwnAxTzV-31" vertex="1">
                    <mxGeometry y="30" width="90" height="20" as="geometry"/>
                </mxCell>
                <mxCell id="EfCglWQtfxGPOwnAxTzV-33" value="TableRef" style="text;strokeColor=default;fillColor=none;align=left;verticalAlign=middle;spacingLeft=4;spacingRight=4;overflow=hidden;points=[[0,0.5],[1,0.5]];portConstraint=eastwest;rotatable=0;whiteSpace=wrap;html=1;fontSize=8;dashed=1;" parent="EfCglWQtfxGPOwnAxTzV-31" vertex="1">
                    <mxGeometry y="50" width="90" height="20" as="geometry"/>
                </mxCell>
                <mxCell id="EfCglWQtfxGPOwnAxTzV-34" value="Object&amp;lt;T&amp;gt;" style="swimlane;fontStyle=0;childLayout=stackLayout;horizontal=1;startSize=30;horizontalStack=0;resizeParent=1;resizeParentMax=0;resizeLast=0;collapsible=1;marginBottom=0;whiteSpace=wrap;html=1;fontSize=8;" parent="1" vertex="1">
                    <mxGeometry x="278" y="400" width="90" height="70" as="geometry">
                        <mxRectangle x="270" y="470" width="90" height="30" as="alternateBounds"/>
                    </mxGeometry>
                </mxCell>
                <mxCell id="EfCglWQtfxGPOwnAxTzV-35" value="ObjectID" style="text;strokeColor=default;fillColor=none;align=left;verticalAlign=middle;spacingLeft=4;spacingRight=4;overflow=hidden;points=[[0,0.5],[1,0.5]];portConstraint=eastwest;rotatable=0;whiteSpace=wrap;html=1;fontSize=8;dashed=1;" parent="EfCglWQtfxGPOwnAxTzV-34" vertex="1">
                    <mxGeometry y="30" width="90" height="20" as="geometry"/>
                </mxCell>
                <mxCell id="EfCglWQtfxGPOwnAxTzV-36" value="T" style="text;strokeColor=default;fillColor=none;align=left;verticalAlign=middle;spacingLeft=4;spacingRight=4;overflow=hidden;points=[[0,0.5],[1,0.5]];portConstraint=eastwest;rotatable=0;whiteSpace=wrap;html=1;fontSize=8;dashed=1;" parent="EfCglWQtfxGPOwnAxTzV-34" vertex="1">
                    <mxGeometry y="50" width="90" height="20" as="geometry"/>
                </mxCell>
                <mxCell id="EfCglWQtfxGPOwnAxTzV-39" value="" style="edgeStyle=elbowEdgeStyle;elbow=horizontal;endArrow=classic;html=1;curved=0;rounded=0;endSize=8;startSize=8;fontSize=8;exitX=0;exitY=0.5;exitDx=0;exitDy=0;entryX=0;entryY=0.25;entryDx=0;entryDy=0;" parent="1" source="EfCglWQtfxGPOwnAxTzV-32" target="EfCglWQtfxGPOwnAxTzV-34" edge="1">
                    <mxGeometry width="50" height="50" relative="1" as="geometry">
                        <mxPoint x="340" y="440" as="sourcePoint"/>
                        <mxPoint x="390" y="390" as="targetPoint"/>
                        <Array as="points">
                            <mxPoint x="240" y="540"/>
                        </Array>
                    </mxGeometry>
                </mxCell>
                <mxCell id="EfCglWQtfxGPOwnAxTzV-40" value="Account" style="swimlane;fontStyle=0;childLayout=stackLayout;horizontal=1;startSize=30;horizontalStack=0;resizeParent=1;resizeParentMax=0;resizeLast=0;collapsible=1;marginBottom=0;whiteSpace=wrap;html=1;fontSize=8;" parent="1" vertex="1">
                    <mxGeometry x="400" y="580" width="90" height="70" as="geometry">
                        <mxRectangle x="270" y="470" width="90" height="30" as="alternateBounds"/>
                    </mxGeometry>
                </mxCell>
                <mxCell id="EfCglWQtfxGPOwnAxTzV-41" value="authentication_key" style="text;strokeColor=default;fillColor=none;align=left;verticalAlign=middle;spacingLeft=4;spacingRight=4;overflow=hidden;points=[[0,0.5],[1,0.5]];portConstraint=eastwest;rotatable=0;whiteSpace=wrap;html=1;fontSize=8;dashed=1;" parent="EfCglWQtfxGPOwnAxTzV-40" vertex="1">
                    <mxGeometry y="30" width="90" height="20" as="geometry"/>
                </mxCell>
                <mxCell id="EfCglWQtfxGPOwnAxTzV-42" value="sequence_number" style="text;strokeColor=default;fillColor=none;align=left;verticalAlign=middle;spacingLeft=4;spacingRight=4;overflow=hidden;points=[[0,0.5],[1,0.5]];portConstraint=eastwest;rotatable=0;whiteSpace=wrap;html=1;fontSize=8;dashed=1;" parent="EfCglWQtfxGPOwnAxTzV-40" vertex="1">
                    <mxGeometry y="50" width="90" height="20" as="geometry"/>
                </mxCell>
                <mxCell id="EfCglWQtfxGPOwnAxTzV-46" style="edgeStyle=none;html=1;exitX=0.5;exitY=0;exitDx=0;exitDy=0;entryX=0.5;entryY=1;entryDx=0;entryDy=0;fontSize=8;endArrow=none;endFill=0;" parent="1" source="EfCglWQtfxGPOwnAxTzV-43" target="EfCglWQtfxGPOwnAxTzV-1" edge="1">
                    <mxGeometry relative="1" as="geometry"/>
                </mxCell>
                <mxCell id="EfCglWQtfxGPOwnAxTzV-47" value="ObjectID" style="edgeLabel;html=1;align=center;verticalAlign=middle;resizable=0;points=[];fontSize=8;" parent="EfCglWQtfxGPOwnAxTzV-46" vertex="1" connectable="0">
                    <mxGeometry x="-0.0686" y="1" relative="1" as="geometry">
                        <mxPoint as="offset"/>
                    </mxGeometry>
                </mxCell>
                <mxCell id="EfCglWQtfxGPOwnAxTzV-43" value="Object&amp;lt;TableInfo&amp;gt;" style="swimlane;fontStyle=0;childLayout=stackLayout;horizontal=1;startSize=30;horizontalStack=0;resizeParent=1;resizeParentMax=0;resizeLast=0;collapsible=1;marginBottom=0;whiteSpace=wrap;html=1;fontSize=8;" parent="1" vertex="1">
                    <mxGeometry x="100" y="400" width="90" height="70" as="geometry">
                        <mxRectangle x="270" y="470" width="90" height="30" as="alternateBounds"/>
                    </mxGeometry>
                </mxCell>
                <mxCell id="EfCglWQtfxGPOwnAxTzV-44" value="ObjectID" style="text;strokeColor=default;fillColor=none;align=left;verticalAlign=middle;spacingLeft=4;spacingRight=4;overflow=hidden;points=[[0,0.5],[1,0.5]];portConstraint=eastwest;rotatable=0;whiteSpace=wrap;html=1;fontSize=8;dashed=1;" parent="EfCglWQtfxGPOwnAxTzV-43" vertex="1">
                    <mxGeometry y="30" width="90" height="20" as="geometry"/>
                </mxCell>
                <mxCell id="EfCglWQtfxGPOwnAxTzV-45" value="StateRoot" style="text;strokeColor=default;fillColor=none;align=left;verticalAlign=middle;spacingLeft=4;spacingRight=4;overflow=hidden;points=[[0,0.5],[1,0.5]];portConstraint=eastwest;rotatable=0;whiteSpace=wrap;html=1;fontSize=8;dashed=1;" parent="EfCglWQtfxGPOwnAxTzV-43" vertex="1">
                    <mxGeometry y="50" width="90" height="20" as="geometry"/>
                </mxCell>
                <mxCell id="EfCglWQtfxGPOwnAxTzV-48" value="Key1" style="edgeStyle=none;html=1;exitX=0.25;exitY=1;exitDx=0;exitDy=0;entryX=0.25;entryY=0;entryDx=0;entryDy=0;fontSize=8;endArrow=none;endFill=0;" parent="1" source="EfCglWQtfxGPOwnAxTzV-50" target="EfCglWQtfxGPOwnAxTzV-51" edge="1">
                    <mxGeometry relative="1" as="geometry"/>
                </mxCell>
                <mxCell id="EfCglWQtfxGPOwnAxTzV-49" value="Key2" style="edgeStyle=none;html=1;exitX=0.5;exitY=1;exitDx=0;exitDy=0;entryX=0.75;entryY=0;entryDx=0;entryDy=0;fontSize=8;endArrow=none;endFill=0;" parent="1" source="EfCglWQtfxGPOwnAxTzV-50" target="EfCglWQtfxGPOwnAxTzV-52" edge="1">
                    <mxGeometry relative="1" as="geometry"/>
                </mxCell>
                <mxCell id="EfCglWQtfxGPOwnAxTzV-50" value="State Root(SMT)" style="rounded=0;whiteSpace=wrap;html=1;fontSize=8;" parent="1" vertex="1">
                    <mxGeometry x="60" y="510" width="104.5" height="20" as="geometry"/>
                </mxCell>
                <mxCell id="EfCglWQtfxGPOwnAxTzV-51" value="Value1" style="rounded=0;whiteSpace=wrap;html=1;fontSize=8;" parent="1" vertex="1">
                    <mxGeometry x="50" y="600" width="50" height="20" as="geometry"/>
                </mxCell>
                <mxCell id="EfCglWQtfxGPOwnAxTzV-52" value="Value2" style="rounded=0;whiteSpace=wrap;html=1;fontSize=8;" parent="1" vertex="1">
                    <mxGeometry x="114.5" y="600" width="50" height="20" as="geometry"/>
                </mxCell>
                <mxCell id="EfCglWQtfxGPOwnAxTzV-54" value="" style="edgeStyle=elbowEdgeStyle;elbow=horizontal;endArrow=none;html=1;curved=0;rounded=0;endSize=8;startSize=8;fontSize=8;entryX=0;entryY=0.5;entryDx=0;entryDy=0;startArrow=classic;startFill=1;endFill=0;" parent="1" target="EfCglWQtfxGPOwnAxTzV-45" edge="1">
                    <mxGeometry width="50" height="50" relative="1" as="geometry">
                        <mxPoint x="80" y="510" as="sourcePoint"/>
                        <mxPoint x="80" y="440" as="targetPoint"/>
                        <Array as="points">
                            <mxPoint x="80" y="460"/>
                        </Array>
                    </mxGeometry>
                </mxCell>
                <mxCell id="d0_G30S1BKhN1SL5t5LG-3" style="edgeStyle=orthogonalEdgeStyle;html=1;exitX=0;exitY=0.5;exitDx=0;exitDy=0;entryX=1;entryY=0.25;entryDx=0;entryDy=0;rounded=0;" parent="1" source="EfCglWQtfxGPOwnAxTzV-33" target="EfCglWQtfxGPOwnAxTzV-43" edge="1">
                    <mxGeometry relative="1" as="geometry">
                        <Array as="points">
                            <mxPoint x="220" y="640"/>
                            <mxPoint x="220" y="418"/>
                        </Array>
                    </mxGeometry>
                </mxCell>
                <mxCell id="d0_G30S1BKhN1SL5t5LG-4" value="Object&amp;lt;AccountStorage&amp;gt;" style="swimlane;fontStyle=0;childLayout=stackLayout;horizontal=1;startSize=30;horizontalStack=0;resizeParent=1;resizeParentMax=0;resizeLast=0;collapsible=1;marginBottom=0;whiteSpace=wrap;html=1;fontSize=8;" parent="1" vertex="1">
                    <mxGeometry x="736" y="400" width="94" height="70" as="geometry">
                        <mxRectangle x="270" y="470" width="90" height="30" as="alternateBounds"/>
                    </mxGeometry>
                </mxCell>
                <mxCell id="d0_G30S1BKhN1SL5t5LG-5" value="Resources" style="text;strokeColor=default;fillColor=none;align=left;verticalAlign=middle;spacingLeft=4;spacingRight=4;overflow=hidden;points=[[0,0.5],[1,0.5]];portConstraint=eastwest;rotatable=0;whiteSpace=wrap;html=1;fontSize=8;dashed=1;" parent="d0_G30S1BKhN1SL5t5LG-4" vertex="1">
                    <mxGeometry y="30" width="94" height="20" as="geometry"/>
                </mxCell>
                <mxCell id="d0_G30S1BKhN1SL5t5LG-6" value="Modules" style="text;strokeColor=default;fillColor=none;align=left;verticalAlign=middle;spacingLeft=4;spacingRight=4;overflow=hidden;points=[[0,0.5],[1,0.5]];portConstraint=eastwest;rotatable=0;whiteSpace=wrap;html=1;fontSize=8;dashed=1;" parent="d0_G30S1BKhN1SL5t5LG-4" vertex="1">
                    <mxGeometry y="50" width="94" height="20" as="geometry"/>
                </mxCell>
                <mxCell id="d0_G30S1BKhN1SL5t5LG-9" style="edgeStyle=orthogonalEdgeStyle;rounded=0;html=1;exitX=0;exitY=0.5;exitDx=0;exitDy=0;entryX=1;entryY=0.25;entryDx=0;entryDy=0;" parent="1" source="d0_G30S1BKhN1SL5t5LG-6" target="EfCglWQtfxGPOwnAxTzV-8" edge="1">
                    <mxGeometry relative="1" as="geometry"/>
                </mxCell>
                <mxCell id="d0_G30S1BKhN1SL5t5LG-10" style="edgeStyle=orthogonalEdgeStyle;rounded=0;html=1;exitX=0;exitY=0.5;exitDx=0;exitDy=0;entryX=0.75;entryY=0;entryDx=0;entryDy=0;" parent="1" source="d0_G30S1BKhN1SL5t5LG-5" target="EfCglWQtfxGPOwnAxTzV-4" edge="1">
                    <mxGeometry relative="1" as="geometry">
                        <mxPoint x="720" y="360" as="targetPoint"/>
                        <Array as="points">
                            <mxPoint x="730" y="440"/>
                            <mxPoint x="730" y="390"/>
                            <mxPoint x="538" y="390"/>
                        </Array>
                    </mxGeometry>
                </mxCell>
            </root>
        </mxGraphModel>
    </diagram>
    <diagram id="RnYH5GV5izf0RyfVhBAA" name="StorageAbstraction">
        <mxGraphModel dx="405" dy="716" grid="1" gridSize="10" guides="1" tooltips="1" connect="1" arrows="1" fold="1" page="1" pageScale="1" pageWidth="850" pageHeight="1100" math="0" shadow="0">
            <root>
                <mxCell id="0"/>
                <mxCell id="1" parent="0"/>
                <mxCell id="VE-epdOxlRjSkLW2V2dk-1" value="" style="rounded=0;whiteSpace=wrap;html=1;" vertex="1" parent="1">
                    <mxGeometry x="110" y="280" width="650" height="270" as="geometry"/>
                </mxCell>
                <mxCell id="VE-epdOxlRjSkLW2V2dk-2" value="Storage Abstraction" style="rounded=0;whiteSpace=wrap;html=1;dashed=1;strokeColor=none;" vertex="1" parent="1">
                    <mxGeometry x="132.76" y="292" width="600.4705882352941" height="40" as="geometry"/>
                </mxCell>
                <mxCell id="VE-epdOxlRjSkLW2V2dk-9" value="RawTable" style="rounded=0;whiteSpace=wrap;html=1;" vertex="1" parent="1">
                    <mxGeometry x="133" y="500" width="604" height="40" as="geometry"/>
                </mxCell>
                <mxCell id="VE-epdOxlRjSkLW2V2dk-11" value="Table" style="rounded=0;whiteSpace=wrap;html=1;" vertex="1" parent="1">
                    <mxGeometry x="133" y="440" width="187" height="40" as="geometry"/>
                </mxCell>
                <mxCell id="VE-epdOxlRjSkLW2V2dk-12" value="TypeTable" style="rounded=0;whiteSpace=wrap;html=1;" vertex="1" parent="1">
                    <mxGeometry x="340" y="440" width="187" height="40" as="geometry"/>
                </mxCell>
                <mxCell id="VE-epdOxlRjSkLW2V2dk-13" value="ObjectStorage" style="rounded=0;whiteSpace=wrap;html=1;" vertex="1" parent="1">
                    <mxGeometry x="547.23" y="440" width="187" height="40" as="geometry"/>
                </mxCell>
                <mxCell id="1LlnzmgLya8TC7z18cx_-1" value="AccountStorage&lt;div style=&quot;text-align: justify;&quot;&gt;&lt;/div&gt;" style="rounded=0;whiteSpace=wrap;html=1;dashed=1;fillColor=none;verticalAlign=top;" vertex="1" parent="1">
                    <mxGeometry x="129.76" y="350" width="400.24" height="80" as="geometry"/>
                </mxCell>
                <mxCell id="VE-epdOxlRjSkLW2V2dk-14" value="ResourceTable" style="rounded=0;whiteSpace=wrap;html=1;" vertex="1" parent="1">
                    <mxGeometry x="340" y="380" width="187" height="40" as="geometry"/>
                </mxCell>
                <mxCell id="VE-epdOxlRjSkLW2V2dk-15" value="ModuleTable" style="rounded=0;whiteSpace=wrap;html=1;" vertex="1" parent="1">
                    <mxGeometry x="133" y="380" width="187" height="40" as="geometry"/>
                </mxCell>
                <mxCell id="lG586sItyR9QX2SpN4v9-2" value="App Specific Storage" style="rounded=0;whiteSpace=wrap;html=1;dashed=1;" vertex="1" parent="1">
                    <mxGeometry x="547.23" y="350" width="187" height="80" as="geometry"/>
                </mxCell>
            </root>
        </mxGraphModel>
    </diagram>
    <diagram id="VMdmvHIP7ZLM2UMgbgJ8" name="transaction-flow-functional-perspective">
        <mxGraphModel dx="1092" dy="551" grid="1" gridSize="10" guides="1" tooltips="1" connect="1" arrows="1" fold="1" page="1" pageScale="1" pageWidth="850" pageHeight="1100" background="#ffffff" math="0" shadow="0">
            <root>
                <mxCell id="0"/>
                <mxCell id="1" parent="0"/>
                <mxCell id="5CfAKoUlsBRQquJSSkqE-84" style="edgeStyle=none;html=1;exitX=0;exitY=0.5;exitDx=0;exitDy=0;strokeColor=#330000;fontSize=10;endArrow=none;endFill=0;" parent="1" source="5CfAKoUlsBRQquJSSkqE-48" edge="1">
                    <mxGeometry relative="1" as="geometry">
                        <mxPoint x="80" y="650" as="targetPoint"/>
                    </mxGeometry>
                </mxCell>
                <mxCell id="5CfAKoUlsBRQquJSSkqE-85" value="tx execution info" style="edgeLabel;html=1;align=center;verticalAlign=middle;resizable=0;points=[];fontSize=10;" parent="5CfAKoUlsBRQquJSSkqE-84" vertex="1" connectable="0">
                    <mxGeometry x="0.3854" y="-1" relative="1" as="geometry">
                        <mxPoint x="14" as="offset"/>
                    </mxGeometry>
                </mxCell>
                <mxCell id="5CfAKoUlsBRQquJSSkqE-48" value="execute_tx" style="rounded=0;whiteSpace=wrap;html=1;dashed=1;strokeColor=#330000;strokeWidth=1;fontSize=10;fillColor=none;verticalAlign=top;" parent="1" vertex="1">
                    <mxGeometry x="168" y="449" width="180" height="401" as="geometry"/>
                </mxCell>
                <mxCell id="5CfAKoUlsBRQquJSSkqE-38" value="validate_tx" style="rounded=0;whiteSpace=wrap;html=1;dashed=1;strokeColor=#330000;strokeWidth=1;fontSize=10;fillColor=none;verticalAlign=top;" parent="1" vertex="1">
                    <mxGeometry x="168" y="72" width="180" height="190" as="geometry"/>
                </mxCell>
                <mxCell id="5CfAKoUlsBRQquJSSkqE-3" value="" style="endArrow=none;html=1;dashed=1;" parent="1" edge="1">
                    <mxGeometry width="50" height="50" relative="1" as="geometry">
                        <mxPoint x="136" y="1080" as="sourcePoint"/>
                        <mxPoint x="136" y="10" as="targetPoint"/>
                    </mxGeometry>
                </mxCell>
                <mxCell id="5CfAKoUlsBRQquJSSkqE-40" style="edgeStyle=none;html=1;exitX=0.5;exitY=1;exitDx=0;exitDy=0;entryX=0.5;entryY=0;entryDx=0;entryDy=0;strokeColor=#330000;fontSize=10;" parent="1" source="5CfAKoUlsBRQquJSSkqE-4" target="5CfAKoUlsBRQquJSSkqE-6" edge="1">
                    <mxGeometry relative="1" as="geometry"/>
                </mxCell>
                <mxCell id="5CfAKoUlsBRQquJSSkqE-41" value="MultiChain Tx&lt;br&gt;from Client" style="edgeLabel;html=1;align=center;verticalAlign=middle;resizable=0;points=[];fontSize=10;" parent="5CfAKoUlsBRQquJSSkqE-40" vertex="1" connectable="0">
                    <mxGeometry x="-0.0944" y="2" relative="1" as="geometry">
                        <mxPoint y="-6" as="offset"/>
                    </mxGeometry>
                </mxCell>
                <mxCell id="5CfAKoUlsBRQquJSSkqE-4" value="" style="ellipse;html=1;shape=startState;fillColor=#000000;strokeColor=#330000;" parent="1" vertex="1">
                    <mxGeometry x="50" y="50" width="30" height="30" as="geometry"/>
                </mxCell>
                <mxCell id="5CfAKoUlsBRQquJSSkqE-39" style="edgeStyle=none;html=1;strokeColor=#330000;fontSize=10;entryX=-0.008;entryY=0.351;entryDx=0;entryDy=0;entryPerimeter=0;" parent="1" target="5CfAKoUlsBRQquJSSkqE-38" edge="1">
                    <mxGeometry relative="1" as="geometry">
                        <mxPoint x="109" y="139.38606676342522" as="sourcePoint"/>
                        <mxPoint x="160" y="139" as="targetPoint"/>
                    </mxGeometry>
                </mxCell>
                <mxCell id="5CfAKoUlsBRQquJSSkqE-6" value="validate_tx" style="rounded=1;whiteSpace=wrap;html=1;absoluteArcSize=1;arcSize=14;strokeWidth=1;strokeColor=#330000;" parent="1" vertex="1">
                    <mxGeometry x="19" y="130" width="90" height="20" as="geometry"/>
                </mxCell>
                <mxCell id="5CfAKoUlsBRQquJSSkqE-7" value="Executor" style="text;html=1;strokeColor=none;fillColor=none;align=center;verticalAlign=middle;whiteSpace=wrap;rounded=0;" parent="1" vertex="1">
                    <mxGeometry x="230" y="10" width="60" height="30" as="geometry"/>
                </mxCell>
                <mxCell id="5CfAKoUlsBRQquJSSkqE-8" value="Sequencer" style="text;html=1;strokeColor=none;fillColor=none;align=center;verticalAlign=middle;whiteSpace=wrap;rounded=0;" parent="1" vertex="1">
                    <mxGeometry x="700" y="10" width="60" height="30" as="geometry"/>
                </mxCell>
                <mxCell id="5CfAKoUlsBRQquJSSkqE-9" value="RPC Service" style="text;html=1;strokeColor=none;fillColor=none;align=center;verticalAlign=middle;whiteSpace=wrap;rounded=0;" parent="1" vertex="1">
                    <mxGeometry x="24" y="10" width="85" height="30" as="geometry"/>
                </mxCell>
                <mxCell id="5CfAKoUlsBRQquJSSkqE-19" style="edgeStyle=none;html=1;entryX=0.5;entryY=0;entryDx=0;entryDy=0;strokeColor=#330000;" parent="1" source="5CfAKoUlsBRQquJSSkqE-10" target="5CfAKoUlsBRQquJSSkqE-11" edge="1">
                    <mxGeometry relative="1" as="geometry"/>
                </mxCell>
                <mxCell id="5CfAKoUlsBRQquJSSkqE-71" style="edgeStyle=none;html=1;exitX=1;exitY=0.5;exitDx=0;exitDy=0;entryX=0;entryY=0.5;entryDx=0;entryDy=0;strokeColor=#330000;fontSize=10;endArrow=classic;endFill=1;startArrow=classic;startFill=1;" parent="1" source="5CfAKoUlsBRQquJSSkqE-10" target="5CfAKoUlsBRQquJSSkqE-70" edge="1">
                    <mxGeometry relative="1" as="geometry"/>
                </mxCell>
                <mxCell id="5CfAKoUlsBRQquJSSkqE-10" value="resolve MultiChainAddress" style="rounded=1;whiteSpace=wrap;html=1;absoluteArcSize=1;arcSize=14;strokeWidth=1;strokeColor=#330000;fontSize=10;" parent="1" vertex="1">
                    <mxGeometry x="188" y="103" width="130" height="30" as="geometry"/>
                </mxCell>
                <mxCell id="5CfAKoUlsBRQquJSSkqE-20" style="edgeStyle=none;html=1;exitX=0.5;exitY=1;exitDx=0;exitDy=0;entryX=0.5;entryY=0;entryDx=0;entryDy=0;strokeColor=#330000;" parent="1" source="5CfAKoUlsBRQquJSSkqE-11" target="5CfAKoUlsBRQquJSSkqE-12" edge="1">
                    <mxGeometry relative="1" as="geometry"/>
                </mxCell>
                <mxCell id="5CfAKoUlsBRQquJSSkqE-11" value="construct MoveOS Tx" style="rounded=1;whiteSpace=wrap;html=1;absoluteArcSize=1;arcSize=14;strokeWidth=1;strokeColor=#330000;fontSize=10;" parent="1" vertex="1">
                    <mxGeometry x="188" y="162" width="130" height="30" as="geometry"/>
                </mxCell>
                <mxCell id="5CfAKoUlsBRQquJSSkqE-30" style="edgeStyle=none;html=1;exitX=0.5;exitY=1;exitDx=0;exitDy=0;entryX=0.5;entryY=0;entryDx=0;entryDy=0;entryPerimeter=0;strokeColor=#330000;" parent="1" source="5CfAKoUlsBRQquJSSkqE-38" target="5CfAKoUlsBRQquJSSkqE-27" edge="1">
                    <mxGeometry relative="1" as="geometry">
                        <Array as="points">
                            <mxPoint x="250" y="280"/>
                            <mxPoint x="70" y="280"/>
                        </Array>
                    </mxGeometry>
                </mxCell>
                <mxCell id="5CfAKoUlsBRQquJSSkqE-78" style="edgeStyle=none;html=1;entryX=-0.013;entryY=0.34;entryDx=0;entryDy=0;entryPerimeter=0;strokeColor=#330000;fontSize=10;endArrow=classic;endFill=1;startArrow=classic;startFill=1;" parent="1" target="5CfAKoUlsBRQquJSSkqE-74" edge="1">
                    <mxGeometry relative="1" as="geometry">
                        <mxPoint x="320" y="239" as="sourcePoint"/>
                    </mxGeometry>
                </mxCell>
                <mxCell id="5CfAKoUlsBRQquJSSkqE-12" value="validate MoveOS Tx&amp;nbsp;" style="rounded=1;whiteSpace=wrap;html=1;absoluteArcSize=1;arcSize=14;strokeWidth=1;strokeColor=#330000;fontSize=10;" parent="1" vertex="1">
                    <mxGeometry x="188" y="222" width="130" height="30" as="geometry"/>
                </mxCell>
                <mxCell id="5CfAKoUlsBRQquJSSkqE-83" style="edgeStyle=none;html=1;exitX=1;exitY=0.5;exitDx=0;exitDy=0;entryX=-0.001;entryY=0.293;entryDx=0;entryDy=0;strokeColor=#330000;fontSize=10;endArrow=classic;endFill=1;startArrow=classic;startFill=1;entryPerimeter=0;" parent="1" source="5CfAKoUlsBRQquJSSkqE-14" target="5CfAKoUlsBRQquJSSkqE-79" edge="1">
                    <mxGeometry relative="1" as="geometry">
                        <mxPoint x="323" y="494" as="sourcePoint"/>
                        <mxPoint x="400" y="489.25" as="targetPoint"/>
                    </mxGeometry>
                </mxCell>
                <mxCell id="5CfAKoUlsBRQquJSSkqE-14" value="pre_execute Tx&amp;nbsp;" style="rounded=1;whiteSpace=wrap;html=1;absoluteArcSize=1;arcSize=14;strokeWidth=1;strokeColor=#330000;fontSize=10;" parent="1" vertex="1">
                    <mxGeometry x="193" y="484" width="130" height="30" as="geometry"/>
                </mxCell>
                <mxCell id="5CfAKoUlsBRQquJSSkqE-62" style="edgeStyle=none;html=1;exitX=0.5;exitY=1;exitDx=0;exitDy=0;entryX=0;entryY=0;entryDx=0;entryDy=0;strokeColor=#330000;fontSize=10;endArrow=classic;endFill=1;" parent="1" source="5CfAKoUlsBRQquJSSkqE-23" target="5CfAKoUlsBRQquJSSkqE-61" edge="1">
                    <mxGeometry relative="1" as="geometry"/>
                </mxCell>
                <mxCell id="5CfAKoUlsBRQquJSSkqE-23" value="Reject" style="rounded=1;whiteSpace=wrap;html=1;absoluteArcSize=1;arcSize=14;strokeWidth=1;strokeColor=#330000;fontSize=10;" parent="1" vertex="1">
                    <mxGeometry x="4.5" y="1000" width="48.5" height="30" as="geometry"/>
                </mxCell>
                <mxCell id="5CfAKoUlsBRQquJSSkqE-63" style="edgeStyle=none;html=1;exitX=0.5;exitY=1;exitDx=0;exitDy=0;entryX=1;entryY=0;entryDx=0;entryDy=0;strokeColor=#330000;fontSize=10;endArrow=classic;endFill=1;" parent="1" source="5CfAKoUlsBRQquJSSkqE-24" target="5CfAKoUlsBRQquJSSkqE-61" edge="1">
                    <mxGeometry relative="1" as="geometry"/>
                </mxCell>
                <mxCell id="5CfAKoUlsBRQquJSSkqE-24" value="Accept" style="rounded=1;whiteSpace=wrap;html=1;absoluteArcSize=1;arcSize=14;strokeWidth=1;strokeColor=#330000;fontSize=10;" parent="1" vertex="1">
                    <mxGeometry x="68" y="1000" width="48.5" height="30" as="geometry"/>
                </mxCell>
                <mxCell id="5CfAKoUlsBRQquJSSkqE-31" style="edgeStyle=none;html=1;exitX=0;exitY=0.5;exitDx=0;exitDy=0;exitPerimeter=0;entryX=0.5;entryY=0;entryDx=0;entryDy=0;strokeColor=#330000;" parent="1" source="5CfAKoUlsBRQquJSSkqE-27" target="5CfAKoUlsBRQquJSSkqE-23" edge="1">
                    <mxGeometry relative="1" as="geometry">
                        <Array as="points">
                            <mxPoint x="30" y="370"/>
                        </Array>
                    </mxGeometry>
                </mxCell>
                <mxCell id="5CfAKoUlsBRQquJSSkqE-32" value="No" style="edgeLabel;html=1;align=center;verticalAlign=middle;resizable=0;points=[];fontSize=10;" parent="5CfAKoUlsBRQquJSSkqE-31" vertex="1" connectable="0">
                    <mxGeometry x="0.0227" relative="1" as="geometry">
                        <mxPoint as="offset"/>
                    </mxGeometry>
                </mxCell>
                <mxCell id="5CfAKoUlsBRQquJSSkqE-43" style="edgeStyle=none;html=1;exitX=0.5;exitY=1;exitDx=0;exitDy=0;exitPerimeter=0;entryX=0.368;entryY=0.05;entryDx=0;entryDy=0;entryPerimeter=0;strokeColor=#330000;fontSize=10;" parent="1" source="5CfAKoUlsBRQquJSSkqE-27" target="5CfAKoUlsBRQquJSSkqE-42" edge="1">
                    <mxGeometry relative="1" as="geometry"/>
                </mxCell>
                <mxCell id="5CfAKoUlsBRQquJSSkqE-44" value="Yes" style="edgeLabel;html=1;align=center;verticalAlign=middle;resizable=0;points=[];fontSize=10;" parent="5CfAKoUlsBRQquJSSkqE-43" vertex="1" connectable="0">
                    <mxGeometry x="-0.1859" y="1" relative="1" as="geometry">
                        <mxPoint as="offset"/>
                    </mxGeometry>
                </mxCell>
                <mxCell id="5CfAKoUlsBRQquJSSkqE-27" value="Tx is validate" style="strokeWidth=1;html=1;shape=mxgraph.flowchart.decision;whiteSpace=wrap;strokeColor=#330000;fontSize=10;" parent="1" vertex="1">
                    <mxGeometry x="29" y="302" width="80" height="55" as="geometry"/>
                </mxCell>
                <mxCell id="vBP2vsidiobIncyj9APb-1" style="edgeStyle=none;html=1;entryX=0;entryY=0.5;entryDx=0;entryDy=0;startArrow=classic;startFill=1;" parent="1" source="5CfAKoUlsBRQquJSSkqE-34" target="5CfAKoUlsBRQquJSSkqE-92" edge="1">
                    <mxGeometry relative="1" as="geometry"/>
                </mxCell>
                <mxCell id="5CfAKoUlsBRQquJSSkqE-34" value="post_execute Tx&amp;nbsp;" style="rounded=1;whiteSpace=wrap;html=1;absoluteArcSize=1;arcSize=14;strokeWidth=1;strokeColor=#330000;fontSize=10;" parent="1" vertex="1">
                    <mxGeometry x="195" y="790" width="130" height="30" as="geometry"/>
                </mxCell>
                <mxCell id="5CfAKoUlsBRQquJSSkqE-91" style="edgeStyle=none;html=1;exitX=1;exitY=0.5;exitDx=0;exitDy=0;entryX=0;entryY=0.25;entryDx=0;entryDy=0;strokeColor=#330000;fontSize=10;endArrow=classic;endFill=1;startArrow=classic;startFill=1;" parent="1" source="5CfAKoUlsBRQquJSSkqE-35" target="5CfAKoUlsBRQquJSSkqE-89" edge="1">
                    <mxGeometry relative="1" as="geometry"/>
                </mxCell>
                <mxCell id="5CfAKoUlsBRQquJSSkqE-35" value="execute Tx&amp;nbsp;" style="rounded=1;whiteSpace=wrap;html=1;absoluteArcSize=1;arcSize=14;strokeWidth=1;strokeColor=#330000;fontSize=10;" parent="1" vertex="1">
                    <mxGeometry x="195" y="640" width="130" height="30" as="geometry"/>
                </mxCell>
                <mxCell id="5CfAKoUlsBRQquJSSkqE-45" style="edgeStyle=none;html=1;exitX=1;exitY=0.25;exitDx=0;exitDy=0;strokeColor=#330000;fontSize=10;entryX=0;entryY=0.75;entryDx=0;entryDy=0;" parent="1" source="5CfAKoUlsBRQquJSSkqE-42" target="5CfAKoUlsBRQquJSSkqE-46" edge="1">
                    <mxGeometry relative="1" as="geometry">
                        <mxPoint x="640" y="395" as="targetPoint"/>
                    </mxGeometry>
                </mxCell>
                <mxCell id="5CfAKoUlsBRQquJSSkqE-52" style="edgeStyle=none;html=1;exitX=0.5;exitY=1;exitDx=0;exitDy=0;strokeColor=#330000;fontSize=10;" parent="1" source="5CfAKoUlsBRQquJSSkqE-42" target="5CfAKoUlsBRQquJSSkqE-47" edge="1">
                    <mxGeometry relative="1" as="geometry"/>
                </mxCell>
                <mxCell id="5CfAKoUlsBRQquJSSkqE-42" value="sequence_tx" style="rounded=1;whiteSpace=wrap;html=1;absoluteArcSize=1;arcSize=14;strokeWidth=1;strokeColor=#330000;" parent="1" vertex="1">
                    <mxGeometry x="37" y="389" width="87" height="20" as="geometry"/>
                </mxCell>
                <mxCell id="5CfAKoUlsBRQquJSSkqE-50" style="edgeStyle=none;html=1;exitX=-0.013;exitY=0.936;exitDx=0;exitDy=0;strokeColor=#330000;fontSize=10;endArrow=none;endFill=0;exitPerimeter=0;" parent="1" source="5CfAKoUlsBRQquJSSkqE-46" edge="1">
                    <mxGeometry relative="1" as="geometry">
                        <mxPoint x="80" y="428" as="targetPoint"/>
                    </mxGeometry>
                </mxCell>
                <mxCell id="5CfAKoUlsBRQquJSSkqE-51" value="tx sequence info" style="edgeLabel;html=1;align=center;verticalAlign=middle;resizable=0;points=[];fontSize=10;" parent="5CfAKoUlsBRQquJSSkqE-50" vertex="1" connectable="0">
                    <mxGeometry x="0.0073" relative="1" as="geometry">
                        <mxPoint as="offset"/>
                    </mxGeometry>
                </mxCell>
                <mxCell id="5CfAKoUlsBRQquJSSkqE-46" value="sequence_tx" style="rounded=0;whiteSpace=wrap;html=1;dashed=1;strokeColor=#330000;strokeWidth=1;fontSize=10;fillColor=none;verticalAlign=top;" parent="1" vertex="1">
                    <mxGeometry x="649" y="251" width="180" height="190" as="geometry"/>
                </mxCell>
                <mxCell id="5CfAKoUlsBRQquJSSkqE-49" style="edgeStyle=none;html=1;exitX=1;exitY=0.5;exitDx=0;exitDy=0;strokeColor=#330000;fontSize=10;" parent="1" source="5CfAKoUlsBRQquJSSkqE-47" edge="1">
                    <mxGeometry relative="1" as="geometry">
                        <mxPoint x="160" y="470" as="targetPoint"/>
                    </mxGeometry>
                </mxCell>
                <mxCell id="5CfAKoUlsBRQquJSSkqE-54" style="edgeStyle=none;html=1;exitX=0.5;exitY=1;exitDx=0;exitDy=0;entryX=0.5;entryY=0;entryDx=0;entryDy=0;strokeColor=#330000;fontSize=10;endArrow=classic;endFill=1;" parent="1" source="5CfAKoUlsBRQquJSSkqE-47" target="5CfAKoUlsBRQquJSSkqE-53" edge="1">
                    <mxGeometry relative="1" as="geometry"/>
                </mxCell>
                <mxCell id="5CfAKoUlsBRQquJSSkqE-47" value="execute_tx" style="rounded=1;whiteSpace=wrap;html=1;absoluteArcSize=1;arcSize=14;strokeWidth=1;strokeColor=#330000;" parent="1" vertex="1">
                    <mxGeometry x="37" y="460" width="87" height="20" as="geometry"/>
                </mxCell>
                <mxCell id="5CfAKoUlsBRQquJSSkqE-56" style="edgeStyle=none;html=1;exitX=1;exitY=0.5;exitDx=0;exitDy=0;entryX=0;entryY=0.5;entryDx=0;entryDy=0;strokeColor=#330000;fontSize=10;endArrow=classic;endFill=1;" parent="1" source="5CfAKoUlsBRQquJSSkqE-53" target="5CfAKoUlsBRQquJSSkqE-55" edge="1">
                    <mxGeometry relative="1" as="geometry"/>
                </mxCell>
                <mxCell id="5CfAKoUlsBRQquJSSkqE-59" style="edgeStyle=none;html=1;exitX=0.5;exitY=1;exitDx=0;exitDy=0;strokeColor=#330000;fontSize=10;endArrow=classic;endFill=1;" parent="1" source="5CfAKoUlsBRQquJSSkqE-53" target="5CfAKoUlsBRQquJSSkqE-58" edge="1">
                    <mxGeometry relative="1" as="geometry"/>
                </mxCell>
                <mxCell id="5CfAKoUlsBRQquJSSkqE-53" value="propose_tx" style="rounded=1;whiteSpace=wrap;html=1;absoluteArcSize=1;arcSize=14;strokeWidth=1;strokeColor=#330000;" parent="1" vertex="1">
                    <mxGeometry x="37" y="882" width="87" height="20" as="geometry"/>
                </mxCell>
                <mxCell id="5CfAKoUlsBRQquJSSkqE-55" value="propose_tx" style="rounded=0;whiteSpace=wrap;html=1;dashed=1;strokeColor=#330000;strokeWidth=1;fontSize=10;fillColor=none;verticalAlign=top;" parent="1" vertex="1">
                    <mxGeometry x="648" y="836" width="180" height="109" as="geometry"/>
                </mxCell>
                <mxCell id="5CfAKoUlsBRQquJSSkqE-60" style="edgeStyle=none;html=1;exitX=0.5;exitY=1;exitDx=0;exitDy=0;entryX=0.25;entryY=0;entryDx=0;entryDy=0;strokeColor=#330000;fontSize=10;endArrow=classic;endFill=1;" parent="1" source="5CfAKoUlsBRQquJSSkqE-58" target="5CfAKoUlsBRQquJSSkqE-24" edge="1">
                    <mxGeometry relative="1" as="geometry"/>
                </mxCell>
                <mxCell id="5CfAKoUlsBRQquJSSkqE-58" value="consturct response" style="rounded=1;whiteSpace=wrap;html=1;absoluteArcSize=1;arcSize=14;strokeWidth=1;strokeColor=#330000;" parent="1" vertex="1">
                    <mxGeometry x="37" y="942" width="87" height="30" as="geometry"/>
                </mxCell>
                <mxCell id="5CfAKoUlsBRQquJSSkqE-61" value="" style="ellipse;html=1;shape=endState;fillColor=#000000;strokeColor=#ff0000;dashed=1;strokeWidth=1;fontSize=10;" parent="1" vertex="1">
                    <mxGeometry x="45" y="1042" width="30" height="30" as="geometry"/>
                </mxCell>
                <mxCell id="5CfAKoUlsBRQquJSSkqE-66" value="" style="endArrow=none;html=1;dashed=1;" parent="1" edge="1">
                    <mxGeometry width="50" height="50" relative="1" as="geometry">
                        <mxPoint x="377" y="1080" as="sourcePoint"/>
                        <mxPoint x="377" y="9" as="targetPoint"/>
                    </mxGeometry>
                </mxCell>
                <mxCell id="5CfAKoUlsBRQquJSSkqE-67" value="" style="endArrow=none;html=1;dashed=1;" parent="1" edge="1">
                    <mxGeometry width="50" height="50" relative="1" as="geometry">
                        <mxPoint x="620" y="1080" as="sourcePoint"/>
                        <mxPoint x="620" y="10" as="targetPoint"/>
                    </mxGeometry>
                </mxCell>
                <mxCell id="5CfAKoUlsBRQquJSSkqE-68" value="MoveOS" style="text;html=1;strokeColor=none;fillColor=none;align=center;verticalAlign=middle;whiteSpace=wrap;rounded=0;" parent="1" vertex="1">
                    <mxGeometry x="460" y="10" width="60" height="30" as="geometry"/>
                </mxCell>
                <mxCell id="5CfAKoUlsBRQquJSSkqE-69" value="address_mapping.move" style="rounded=0;whiteSpace=wrap;html=1;dashed=1;strokeColor=#330000;strokeWidth=1;fontSize=10;fillColor=none;verticalAlign=top;" parent="1" vertex="1">
                    <mxGeometry x="408" y="70" width="180" height="81" as="geometry"/>
                </mxCell>
                <mxCell id="5CfAKoUlsBRQquJSSkqE-70" value="resolve(MultiChainAddress)" style="rounded=1;whiteSpace=wrap;html=1;absoluteArcSize=1;arcSize=14;strokeWidth=1;strokeColor=#330000;fontSize=10;" parent="1" vertex="1">
                    <mxGeometry x="433" y="103" width="130" height="30" as="geometry"/>
                </mxCell>
                <mxCell id="5CfAKoUlsBRQquJSSkqE-72" style="edgeStyle=none;html=1;exitX=1;exitY=0.5;exitDx=0;exitDy=0;dashed=1;strokeColor=#330000;fontSize=10;endArrow=none;endFill=0;" parent="1" edge="1">
                    <mxGeometry relative="1" as="geometry">
                        <mxPoint x="622" y="520" as="sourcePoint"/>
                        <mxPoint x="842" y="520.5" as="targetPoint"/>
                    </mxGeometry>
                </mxCell>
                <mxCell id="5CfAKoUlsBRQquJSSkqE-73" value="Proposer" style="text;html=1;strokeColor=none;fillColor=none;align=center;verticalAlign=middle;whiteSpace=wrap;rounded=0;" parent="1" vertex="1">
                    <mxGeometry x="709" y="540" width="60" height="30" as="geometry"/>
                </mxCell>
                <mxCell id="5CfAKoUlsBRQquJSSkqE-74" value="transaction_validator.move" style="rounded=0;whiteSpace=wrap;html=1;dashed=1;strokeColor=#330000;strokeWidth=1;fontSize=10;fillColor=none;verticalAlign=top;" parent="1" vertex="1">
                    <mxGeometry x="408" y="160" width="180" height="229" as="geometry"/>
                </mxCell>
                <mxCell id="5CfAKoUlsBRQquJSSkqE-75" value="validate(Authenticator)" style="rounded=1;whiteSpace=wrap;html=1;absoluteArcSize=1;arcSize=14;strokeWidth=1;strokeColor=#330000;fontSize=10;" parent="1" vertex="1">
                    <mxGeometry x="433" y="185" width="130" height="30" as="geometry"/>
                </mxCell>
                <mxCell id="5CfAKoUlsBRQquJSSkqE-76" value="validate builtin&lt;br&gt;authenticator scheme" style="rounded=1;whiteSpace=wrap;html=1;absoluteArcSize=1;arcSize=14;strokeWidth=1;strokeColor=#330000;fontSize=10;" parent="1" vertex="1">
                    <mxGeometry x="433" y="225" width="130" height="30" as="geometry"/>
                </mxCell>
                <mxCell id="5CfAKoUlsBRQquJSSkqE-77" value="validate custom&lt;br&gt;authenticator scheme" style="rounded=1;whiteSpace=wrap;html=1;absoluteArcSize=1;arcSize=14;strokeWidth=1;strokeColor=#F70000;fontSize=10;" parent="1" vertex="1">
                    <mxGeometry x="433" y="307" width="130" height="30" as="geometry"/>
                </mxCell>
                <mxCell id="5CfAKoUlsBRQquJSSkqE-79" value="transaction_validator.move" style="rounded=0;whiteSpace=wrap;html=1;dashed=1;strokeColor=#330000;strokeWidth=1;fontSize=10;fillColor=none;verticalAlign=top;" parent="1" vertex="1">
                    <mxGeometry x="400" y="453" width="180" height="157" as="geometry"/>
                </mxCell>
                <mxCell id="5CfAKoUlsBRQquJSSkqE-80" value="pre_execute(TxContext)" style="rounded=1;whiteSpace=wrap;html=1;absoluteArcSize=1;arcSize=14;strokeWidth=1;strokeColor=#330000;fontSize=10;" parent="1" vertex="1">
                    <mxGeometry x="425" y="475" width="130" height="30" as="geometry"/>
                </mxCell>
                <mxCell id="5CfAKoUlsBRQquJSSkqE-86" value="validate&amp;nbsp;gas balance" style="rounded=1;whiteSpace=wrap;html=1;absoluteArcSize=1;arcSize=14;strokeWidth=1;strokeColor=#F70000;fontSize=10;" parent="1" vertex="1">
                    <mxGeometry x="433" y="350" width="130" height="30" as="geometry"/>
                </mxCell>
                <mxCell id="5CfAKoUlsBRQquJSSkqE-87" value="prepare gas" style="rounded=1;whiteSpace=wrap;html=1;absoluteArcSize=1;arcSize=14;strokeWidth=1;strokeColor=#F70000;fontSize=10;" parent="1" vertex="1">
                    <mxGeometry x="425" y="520" width="130" height="30" as="geometry"/>
                </mxCell>
                <mxCell id="5CfAKoUlsBRQquJSSkqE-88" value="auto create address_mapping" style="rounded=1;whiteSpace=wrap;html=1;absoluteArcSize=1;arcSize=14;strokeWidth=1;strokeColor=#330000;fontSize=10;" parent="1" vertex="1">
                    <mxGeometry x="425" y="570" width="130" height="30" as="geometry"/>
                </mxCell>
                <mxCell id="5CfAKoUlsBRQquJSSkqE-89" value="user_defined_module.move" style="rounded=0;whiteSpace=wrap;html=1;dashed=1;strokeColor=#330000;strokeWidth=1;fontSize=10;fillColor=none;verticalAlign=top;" parent="1" vertex="1">
                    <mxGeometry x="400" y="636" width="180" height="77" as="geometry"/>
                </mxCell>
                <mxCell id="5CfAKoUlsBRQquJSSkqE-90" value="entry_function(TxContext)" style="rounded=1;whiteSpace=wrap;html=1;absoluteArcSize=1;arcSize=14;strokeWidth=1;strokeColor=#330000;fontSize=10;" parent="1" vertex="1">
                    <mxGeometry x="425" y="660" width="130" height="30" as="geometry"/>
                </mxCell>
                <mxCell id="5CfAKoUlsBRQquJSSkqE-92" value="transaction_validator.move" style="rounded=0;whiteSpace=wrap;html=1;dashed=1;strokeColor=#330000;strokeWidth=1;fontSize=10;fillColor=none;verticalAlign=top;" parent="1" vertex="1">
                    <mxGeometry x="400" y="726.5" width="180" height="157" as="geometry"/>
                </mxCell>
                <mxCell id="5CfAKoUlsBRQquJSSkqE-93" value="post_execute(TxContext)" style="rounded=1;whiteSpace=wrap;html=1;absoluteArcSize=1;arcSize=14;strokeWidth=1;strokeColor=#330000;fontSize=10;" parent="1" vertex="1">
                    <mxGeometry x="425" y="748.5" width="130" height="30" as="geometry"/>
                </mxCell>
                <mxCell id="5CfAKoUlsBRQquJSSkqE-94" value="&lt;div style=&quot;text-align: start;&quot;&gt;&lt;span style=&quot;background-color: initial;&quot;&gt;charging gas&lt;/span&gt;&lt;/div&gt;" style="rounded=1;whiteSpace=wrap;html=1;absoluteArcSize=1;arcSize=14;strokeWidth=1;strokeColor=#F70000;fontSize=10;" parent="1" vertex="1">
                    <mxGeometry x="425" y="793.5" width="130" height="30" as="geometry"/>
                </mxCell>
                <mxCell id="5CfAKoUlsBRQquJSSkqE-95" value="increment account sequence_number" style="rounded=1;whiteSpace=wrap;html=1;absoluteArcSize=1;arcSize=14;strokeWidth=1;strokeColor=#330000;fontSize=10;" parent="1" vertex="1">
                    <mxGeometry x="425" y="843.5" width="130" height="30" as="geometry"/>
                </mxCell>
                <mxCell id="5CfAKoUlsBRQquJSSkqE-96" value="append tx to accumulator&lt;br&gt;and get tx order" style="rounded=1;whiteSpace=wrap;html=1;absoluteArcSize=1;arcSize=14;strokeWidth=1;strokeColor=#330000;fontSize=10;" parent="1" vertex="1">
                    <mxGeometry x="674" y="288" width="130" height="30" as="geometry"/>
                </mxCell>
                <mxCell id="5CfAKoUlsBRQquJSSkqE-102" style="edgeStyle=none;html=1;exitX=1;exitY=0.5;exitDx=0;exitDy=0;strokeColor=#330000;fontSize=10;startArrow=none;startFill=0;endArrow=classic;endFill=1;" parent="1" source="5CfAKoUlsBRQquJSSkqE-97" target="5CfAKoUlsBRQquJSSkqE-104" edge="1">
                    <mxGeometry relative="1" as="geometry">
                        <Array as="points">
                            <mxPoint x="820" y="358"/>
                            <mxPoint x="820" y="135"/>
                        </Array>
                    </mxGeometry>
                </mxCell>
                <mxCell id="5CfAKoUlsBRQquJSSkqE-97" value="submit Tx to DA buffer" style="rounded=1;whiteSpace=wrap;html=1;absoluteArcSize=1;arcSize=14;strokeWidth=1;strokeColor=#330000;fontSize=10;" parent="1" vertex="1">
                    <mxGeometry x="674" y="345" width="130" height="30" as="geometry"/>
                </mxCell>
                <mxCell id="5CfAKoUlsBRQquJSSkqE-98" value="sign the tx order commitment and return" style="rounded=1;whiteSpace=wrap;html=1;absoluteArcSize=1;arcSize=14;strokeWidth=1;strokeColor=#330000;fontSize=10;" parent="1" vertex="1">
                    <mxGeometry x="674" y="400" width="130" height="30" as="geometry"/>
                </mxCell>
                <mxCell id="5CfAKoUlsBRQquJSSkqE-99" value="commit_to_da" style="rounded=0;whiteSpace=wrap;html=1;dashed=1;strokeColor=#330000;strokeWidth=1;fontSize=10;fillColor=none;verticalAlign=top;" parent="1" vertex="1">
                    <mxGeometry x="650" y="90" width="179" height="120" as="geometry"/>
                </mxCell>
                <mxCell id="5CfAKoUlsBRQquJSSkqE-100" value="commit DA buffer to DA" style="rounded=1;whiteSpace=wrap;html=1;absoluteArcSize=1;arcSize=14;strokeWidth=1;strokeColor=#330000;fontSize=10;" parent="1" vertex="1">
                    <mxGeometry x="674" y="170" width="130" height="30" as="geometry"/>
                </mxCell>
                <mxCell id="5CfAKoUlsBRQquJSSkqE-101" value="" style="sketch=0;pointerEvents=1;shadow=0;dashed=0;html=1;strokeColor=none;fillColor=#505050;labelPosition=center;verticalLabelPosition=bottom;verticalAlign=top;outlineConnect=0;align=center;shape=mxgraph.office.concepts.clock;strokeWidth=1;fontSize=10;" parent="1" vertex="1">
                    <mxGeometry x="808" y="92" width="19" height="19" as="geometry"/>
                </mxCell>
                <mxCell id="5CfAKoUlsBRQquJSSkqE-104" value="DA buffer" style="dashed=0;outlineConnect=0;html=1;align=center;labelPosition=center;verticalLabelPosition=bottom;verticalAlign=top;shape=mxgraph.webicons.buffer;gradientColor=#DFDEDE;strokeColor=#330000;strokeWidth=1;fontSize=10;" parent="1" vertex="1">
                    <mxGeometry x="712.8" y="120" width="53.4" height="30.4" as="geometry"/>
                </mxCell>
                <mxCell id="5CfAKoUlsBRQquJSSkqE-110" style="edgeStyle=none;html=1;exitX=1;exitY=0.5;exitDx=0;exitDy=0;entryX=1.082;entryY=0.416;entryDx=0;entryDy=0;entryPerimeter=0;strokeColor=#330000;fontSize=10;startArrow=none;startFill=0;endArrow=classic;endFill=1;" parent="1" source="5CfAKoUlsBRQquJSSkqE-105" target="5CfAKoUlsBRQquJSSkqE-109" edge="1">
                    <mxGeometry relative="1" as="geometry">
                        <Array as="points">
                            <mxPoint x="820" y="894"/>
                            <mxPoint x="820" y="683"/>
                        </Array>
                    </mxGeometry>
                </mxCell>
                <mxCell id="5CfAKoUlsBRQquJSSkqE-105" value="submit to Propose buffer" style="rounded=1;whiteSpace=wrap;html=1;absoluteArcSize=1;arcSize=14;strokeWidth=1;strokeColor=#330000;fontSize=10;" parent="1" vertex="1">
                    <mxGeometry x="670" y="879" width="130" height="30" as="geometry"/>
                </mxCell>
                <mxCell id="5CfAKoUlsBRQquJSSkqE-106" value="propose_block" style="rounded=0;whiteSpace=wrap;html=1;dashed=1;strokeColor=#330000;strokeWidth=1;fontSize=10;fillColor=none;verticalAlign=top;" parent="1" vertex="1">
                    <mxGeometry x="649" y="640" width="179" height="120" as="geometry"/>
                </mxCell>
                <mxCell id="5CfAKoUlsBRQquJSSkqE-107" value="commit Block State to State commitment Chain contract" style="rounded=1;whiteSpace=wrap;html=1;absoluteArcSize=1;arcSize=14;strokeWidth=1;strokeColor=#330000;fontSize=10;" parent="1" vertex="1">
                    <mxGeometry x="673" y="720" width="130" height="30" as="geometry"/>
                </mxCell>
                <mxCell id="5CfAKoUlsBRQquJSSkqE-108" value="" style="sketch=0;pointerEvents=1;shadow=0;dashed=0;html=1;strokeColor=none;fillColor=#505050;labelPosition=center;verticalLabelPosition=bottom;verticalAlign=top;outlineConnect=0;align=center;shape=mxgraph.office.concepts.clock;strokeWidth=1;fontSize=10;" parent="1" vertex="1">
                    <mxGeometry x="807" y="642" width="19" height="19" as="geometry"/>
                </mxCell>
                <mxCell id="5CfAKoUlsBRQquJSSkqE-109" value="Propose buffer" style="dashed=0;outlineConnect=0;html=1;align=center;labelPosition=center;verticalLabelPosition=bottom;verticalAlign=top;shape=mxgraph.webicons.buffer;gradientColor=#DFDEDE;strokeColor=#330000;strokeWidth=1;fontSize=10;" parent="1" vertex="1">
                    <mxGeometry x="711.8" y="670" width="53.4" height="30.4" as="geometry"/>
                </mxCell>
                <mxCell id="5CfAKoUlsBRQquJSSkqE-115" value="" style="group" parent="1" vertex="1" connectable="0">
                    <mxGeometry x="180" y="990" width="650" height="90" as="geometry"/>
                </mxCell>
                <mxCell id="5CfAKoUlsBRQquJSSkqE-112" value="&lt;h1 style=&quot;font-size: 14px;&quot;&gt;&lt;font style=&quot;font-size: 14px;&quot;&gt;Note&lt;/font&gt;&lt;/h1&gt;&lt;p style=&quot;&quot;&gt;&lt;span style=&quot;font-family: Söhne, ui-sans-serif, system-ui, -apple-system, &amp;quot;Segoe UI&amp;quot;, Roboto, Ubuntu, Cantarell, &amp;quot;Noto Sans&amp;quot;, sans-serif, &amp;quot;Helvetica Neue&amp;quot;, Arial, &amp;quot;Apple Color Emoji&amp;quot;, &amp;quot;Segoe UI Emoji&amp;quot;, &amp;quot;Segoe UI Symbol&amp;quot;, &amp;quot;Noto Color Emoji&amp;quot;; background-color: rgb(255, 255, 255);&quot;&gt;&lt;font style=&quot;font-size: 10px;&quot;&gt;&lt;br&gt;&lt;/font&gt;&lt;/span&gt;&lt;/p&gt;&lt;p style=&quot;&quot;&gt;&lt;span style=&quot;font-family: Söhne, ui-sans-serif, system-ui, -apple-system, &amp;quot;Segoe UI&amp;quot;, Roboto, Ubuntu, Cantarell, &amp;quot;Noto Sans&amp;quot;, sans-serif, &amp;quot;Helvetica Neue&amp;quot;, Arial, &amp;quot;Apple Color Emoji&amp;quot;, &amp;quot;Segoe UI Emoji&amp;quot;, &amp;quot;Segoe UI Symbol&amp;quot;, &amp;quot;Noto Color Emoji&amp;quot;; background-color: rgb(255, 255, 255);&quot;&gt;&lt;font style=&quot;font-size: 10px;&quot;&gt;1. The box with the red outline represents features related to AccountAbstraction, which are still under design.&lt;/font&gt;&lt;/span&gt;&lt;/p&gt;&lt;font face=&quot;Söhne, ui-sans-serif, system-ui, -apple-system, Segoe UI, Roboto, Ubuntu, Cantarell, Noto Sans, sans-serif, Helvetica Neue, Arial, Apple Color Emoji, Segoe UI Emoji, Segoe UI Symbol, Noto Color Emoji&quot;&gt;&lt;span style=&quot;background-color: rgb(255, 255, 255);&quot;&gt;2.&amp;nbsp;&lt;/span&gt;Not all nodes contain the sequencer and proposer components. If the current node does not contain them, it will be a remote call.&lt;/font&gt;" style="text;html=1;strokeColor=default;fillColor=default;spacing=5;spacingTop=-20;whiteSpace=wrap;overflow=hidden;rounded=0;strokeWidth=1;fontSize=10;" parent="5CfAKoUlsBRQquJSSkqE-115" vertex="1">
                    <mxGeometry width="650" height="90" as="geometry"/>
                </mxCell>
                <mxCell id="5CfAKoUlsBRQquJSSkqE-111" value="&lt;div style=&quot;text-align: start;&quot;&gt;&lt;br&gt;&lt;/div&gt;" style="rounded=1;whiteSpace=wrap;html=1;absoluteArcSize=1;arcSize=14;strokeWidth=1;strokeColor=#F70000;fontSize=10;" parent="5CfAKoUlsBRQquJSSkqE-115" vertex="1">
                    <mxGeometry x="4" y="19" width="42" height="23" as="geometry"/>
                </mxCell>
                <mxCell id="5CfAKoUlsBRQquJSSkqE-116" value="validate account sequence_number" style="rounded=1;whiteSpace=wrap;html=1;absoluteArcSize=1;arcSize=14;strokeWidth=1;strokeColor=#000000;fontSize=10;" parent="1" vertex="1">
                    <mxGeometry x="433" y="267" width="130" height="28" as="geometry"/>
                </mxCell>
            </root>
        </mxGraphModel>
    </diagram>
    <diagram id="JxPqVQ-CvFMzT60I-5Sr" name="transaction-flow-user-perspective">
        <mxGraphModel dx="1092" dy="551" grid="1" gridSize="10" guides="1" tooltips="1" connect="1" arrows="1" fold="1" page="1" pageScale="1" pageWidth="850" pageHeight="1100" background="#ffffff" math="0" shadow="0">
            <root>
                <mxCell id="0"/>
                <mxCell id="1" parent="0"/>
                <mxCell id="Nk2QdRn5xBkmKMIOhE36-1" value="User" style="shape=umlActor;verticalLabelPosition=bottom;verticalAlign=top;html=1;outlineConnect=0;labelBackgroundColor=#FFFFFF;fontSize=10;fontColor=#000000;" parent="1" vertex="1">
                    <mxGeometry x="369" y="20" width="20" height="40" as="geometry"/>
                </mxCell>
                <mxCell id="Nk2QdRn5xBkmKMIOhE36-2" value="" style="endArrow=none;dashed=1;html=1;fontSize=10;fontColor=#000000;" parent="1" edge="1">
                    <mxGeometry width="50" height="50" relative="1" as="geometry">
                        <mxPoint x="59" y="160" as="sourcePoint"/>
                        <mxPoint x="799" y="160" as="targetPoint"/>
                    </mxGeometry>
                </mxCell>
                <mxCell id="Sq6Qcy-KbZMsdEfdFCmp-9" style="edgeStyle=none;html=1;exitX=0.5;exitY=1;exitDx=0;exitDy=0;entryX=0.5;entryY=0;entryDx=0;entryDy=0;fontSize=10;fontColor=#000000;startArrow=classic;startFill=1;" parent="1" source="Nk2QdRn5xBkmKMIOhE36-4" target="Sq6Qcy-KbZMsdEfdFCmp-2" edge="1">
                    <mxGeometry relative="1" as="geometry"/>
                </mxCell>
                <mxCell id="Nk2QdRn5xBkmKMIOhE36-4" value="CLI" style="rounded=0;whiteSpace=wrap;html=1;labelBackgroundColor=#FFFFFF;fontSize=10;fontColor=#000000;" parent="1" vertex="1">
                    <mxGeometry x="432" y="100" width="60" height="20" as="geometry"/>
                </mxCell>
                <mxCell id="Sq6Qcy-KbZMsdEfdFCmp-10" style="edgeStyle=none;html=1;exitX=0.5;exitY=1;exitDx=0;exitDy=0;entryX=0.5;entryY=0;entryDx=0;entryDy=0;fontSize=10;fontColor=#000000;startArrow=classic;startFill=1;" parent="1" source="Nk2QdRn5xBkmKMIOhE36-7" target="Sq6Qcy-KbZMsdEfdFCmp-1" edge="1">
                    <mxGeometry relative="1" as="geometry"/>
                </mxCell>
                <mxCell id="Nk2QdRn5xBkmKMIOhE36-7" value="MetaMask" style="rounded=1;whiteSpace=wrap;html=1;labelBackgroundColor=#FFFFFF;fontSize=10;fontColor=#000000;" parent="1" vertex="1">
                    <mxGeometry x="89" y="100" width="60" height="20" as="geometry"/>
                </mxCell>
                <mxCell id="Sq6Qcy-KbZMsdEfdFCmp-11" style="edgeStyle=none;html=1;exitX=0.5;exitY=1;exitDx=0;exitDy=0;entryX=0.5;entryY=0;entryDx=0;entryDy=0;fontSize=10;fontColor=#000000;startArrow=classic;startFill=1;" parent="1" source="Nk2QdRn5xBkmKMIOhE36-8" target="Sq6Qcy-KbZMsdEfdFCmp-3" edge="1">
                    <mxGeometry relative="1" as="geometry"/>
                </mxCell>
                <mxCell id="Nk2QdRn5xBkmKMIOhE36-8" value="OtherL1Wallet" style="rounded=1;whiteSpace=wrap;html=1;labelBackgroundColor=#FFFFFF;fontSize=10;fontColor=#000000;dashed=1;" parent="1" vertex="1">
                    <mxGeometry x="599" y="100" width="70" height="20" as="geometry"/>
                </mxCell>
                <mxCell id="Sq6Qcy-KbZMsdEfdFCmp-8" style="edgeStyle=none;html=1;exitX=0.5;exitY=1;exitDx=0;exitDy=0;entryX=0.5;entryY=0;entryDx=0;entryDy=0;fontSize=10;fontColor=#000000;startArrow=classic;startFill=1;" parent="1" source="Nk2QdRn5xBkmKMIOhE36-10" target="Sq6Qcy-KbZMsdEfdFCmp-2" edge="1">
                    <mxGeometry relative="1" as="geometry"/>
                </mxCell>
                <mxCell id="Nk2QdRn5xBkmKMIOhE36-10" value="Web3 SDK" style="rounded=0;whiteSpace=wrap;html=1;labelBackgroundColor=#FFFFFF;fontSize=10;fontColor=#000000;" parent="1" vertex="1">
                    <mxGeometry x="261" y="100" width="60" height="20" as="geometry"/>
                </mxCell>
                <mxCell id="Sq6Qcy-KbZMsdEfdFCmp-13" style="edgeStyle=none;html=1;exitX=0.5;exitY=1;exitDx=0;exitDy=0;entryX=0.25;entryY=0;entryDx=0;entryDy=0;fontSize=10;fontColor=#000000;startArrow=classic;startFill=1;" parent="1" source="Sq6Qcy-KbZMsdEfdFCmp-1" target="Sq6Qcy-KbZMsdEfdFCmp-4" edge="1">
                    <mxGeometry relative="1" as="geometry"/>
                </mxCell>
                <mxCell id="Sq6Qcy-KbZMsdEfdFCmp-1" value="Ethereum RPC API" style="rounded=0;whiteSpace=wrap;html=1;labelBackgroundColor=#FFFFFF;fontSize=10;fontColor=#000000;" parent="1" vertex="1">
                    <mxGeometry x="109" y="190" width="100" height="20" as="geometry"/>
                </mxCell>
                <mxCell id="Sq6Qcy-KbZMsdEfdFCmp-27" style="edgeStyle=none;html=1;exitX=0.5;exitY=1;exitDx=0;exitDy=0;entryX=0.5;entryY=0;entryDx=0;entryDy=0;fontSize=10;fontColor=#000000;startArrow=classic;startFill=1;" parent="1" source="Sq6Qcy-KbZMsdEfdFCmp-2" target="Sq6Qcy-KbZMsdEfdFCmp-4" edge="1">
                    <mxGeometry relative="1" as="geometry"/>
                </mxCell>
                <mxCell id="Sq6Qcy-KbZMsdEfdFCmp-2" value="Rooch RPC API" style="rounded=0;whiteSpace=wrap;html=1;labelBackgroundColor=#FFFFFF;fontSize=10;fontColor=#000000;" parent="1" vertex="1">
                    <mxGeometry x="329" y="190" width="100" height="20" as="geometry"/>
                </mxCell>
                <mxCell id="Sq6Qcy-KbZMsdEfdFCmp-12" style="edgeStyle=none;html=1;exitX=0.5;exitY=1;exitDx=0;exitDy=0;entryX=0.75;entryY=0;entryDx=0;entryDy=0;fontSize=10;fontColor=#000000;startArrow=classic;startFill=1;" parent="1" source="Sq6Qcy-KbZMsdEfdFCmp-3" target="Sq6Qcy-KbZMsdEfdFCmp-4" edge="1">
                    <mxGeometry relative="1" as="geometry"/>
                </mxCell>
                <mxCell id="Sq6Qcy-KbZMsdEfdFCmp-3" value="Other RPC API" style="rounded=0;whiteSpace=wrap;html=1;labelBackgroundColor=#FFFFFF;fontSize=10;fontColor=#000000;dashed=1;" parent="1" vertex="1">
                    <mxGeometry x="559" y="190" width="100" height="20" as="geometry"/>
                </mxCell>
                <mxCell id="Sq6Qcy-KbZMsdEfdFCmp-15" style="edgeStyle=none;html=1;exitX=0.5;exitY=1;exitDx=0;exitDy=0;entryX=0.5;entryY=0;entryDx=0;entryDy=0;fontSize=10;fontColor=#000000;startArrow=classic;startFill=1;" parent="1" source="Sq6Qcy-KbZMsdEfdFCmp-4" target="Sq6Qcy-KbZMsdEfdFCmp-6" edge="1">
                    <mxGeometry relative="1" as="geometry"/>
                </mxCell>
                <mxCell id="Sq6Qcy-KbZMsdEfdFCmp-16" value="sequence_tx" style="edgeLabel;html=1;align=center;verticalAlign=middle;resizable=0;points=[];fontSize=10;fontColor=#000000;" parent="Sq6Qcy-KbZMsdEfdFCmp-15" vertex="1" connectable="0">
                    <mxGeometry x="0.0314" y="-2" relative="1" as="geometry">
                        <mxPoint as="offset"/>
                    </mxGeometry>
                </mxCell>
                <mxCell id="Sq6Qcy-KbZMsdEfdFCmp-17" style="edgeStyle=none;html=1;exitX=0.5;exitY=1;exitDx=0;exitDy=0;fontSize=10;fontColor=#000000;startArrow=classic;startFill=1;" parent="1" source="Sq6Qcy-KbZMsdEfdFCmp-4" target="Sq6Qcy-KbZMsdEfdFCmp-5" edge="1">
                    <mxGeometry relative="1" as="geometry"/>
                </mxCell>
                <mxCell id="Sq6Qcy-KbZMsdEfdFCmp-18" value="validate_tx &amp;amp; execute_tx" style="edgeLabel;html=1;align=center;verticalAlign=middle;resizable=0;points=[];fontSize=10;fontColor=#000000;" parent="Sq6Qcy-KbZMsdEfdFCmp-17" vertex="1" connectable="0">
                    <mxGeometry x="0.0286" y="1" relative="1" as="geometry">
                        <mxPoint as="offset"/>
                    </mxGeometry>
                </mxCell>
                <mxCell id="Sq6Qcy-KbZMsdEfdFCmp-19" style="edgeStyle=none;html=1;exitX=0.5;exitY=1;exitDx=0;exitDy=0;entryX=0.5;entryY=0;entryDx=0;entryDy=0;fontSize=10;fontColor=#000000;startArrow=classic;startFill=1;" parent="1" source="Sq6Qcy-KbZMsdEfdFCmp-4" target="Sq6Qcy-KbZMsdEfdFCmp-7" edge="1">
                    <mxGeometry relative="1" as="geometry"/>
                </mxCell>
                <mxCell id="Sq6Qcy-KbZMsdEfdFCmp-20" value="propose_tx" style="edgeLabel;html=1;align=center;verticalAlign=middle;resizable=0;points=[];fontSize=10;fontColor=#000000;" parent="Sq6Qcy-KbZMsdEfdFCmp-19" vertex="1" connectable="0">
                    <mxGeometry x="-0.0154" y="-1" relative="1" as="geometry">
                        <mxPoint as="offset"/>
                    </mxGeometry>
                </mxCell>
                <mxCell id="Sq6Qcy-KbZMsdEfdFCmp-4" value="RPC service" style="rounded=0;whiteSpace=wrap;html=1;labelBackgroundColor=#FFFFFF;fontSize=10;fontColor=#000000;" parent="1" vertex="1">
                    <mxGeometry x="329" y="272" width="100" height="20" as="geometry"/>
                </mxCell>
                <mxCell id="Sq6Qcy-KbZMsdEfdFCmp-5" value="Executor" style="rounded=0;whiteSpace=wrap;html=1;labelBackgroundColor=#FFFFFF;fontSize=10;fontColor=#000000;" parent="1" vertex="1">
                    <mxGeometry x="329" y="362" width="100" height="20" as="geometry"/>
                </mxCell>
                <mxCell id="Sq6Qcy-KbZMsdEfdFCmp-25" style="edgeStyle=none;html=1;exitX=0.5;exitY=1;exitDx=0;exitDy=0;entryX=0.5;entryY=0;entryDx=0;entryDy=0;fontSize=10;fontColor=#000000;startArrow=none;startFill=0;" parent="1" source="Sq6Qcy-KbZMsdEfdFCmp-6" target="Sq6Qcy-KbZMsdEfdFCmp-23" edge="1">
                    <mxGeometry relative="1" as="geometry"/>
                </mxCell>
                <mxCell id="Sq6Qcy-KbZMsdEfdFCmp-6" value="Sequencer" style="rounded=0;whiteSpace=wrap;html=1;labelBackgroundColor=#FFFFFF;fontSize=10;fontColor=#000000;" parent="1" vertex="1">
                    <mxGeometry x="161" y="362" width="100" height="20" as="geometry"/>
                </mxCell>
                <mxCell id="Sq6Qcy-KbZMsdEfdFCmp-26" style="edgeStyle=none;html=1;exitX=0.5;exitY=1;exitDx=0;exitDy=0;entryX=0.385;entryY=0;entryDx=0;entryDy=0;entryPerimeter=0;fontSize=10;fontColor=#000000;startArrow=none;startFill=0;" parent="1" source="Sq6Qcy-KbZMsdEfdFCmp-7" target="Sq6Qcy-KbZMsdEfdFCmp-24" edge="1">
                    <mxGeometry relative="1" as="geometry"/>
                </mxCell>
                <mxCell id="Sq6Qcy-KbZMsdEfdFCmp-7" value="Proposer" style="rounded=0;whiteSpace=wrap;html=1;labelBackgroundColor=#FFFFFF;fontSize=10;fontColor=#000000;" parent="1" vertex="1">
                    <mxGeometry x="509" y="362" width="100" height="20" as="geometry"/>
                </mxCell>
                <mxCell id="Sq6Qcy-KbZMsdEfdFCmp-21" value="" style="endArrow=none;dashed=1;html=1;fontSize=10;fontColor=#000000;" parent="1" edge="1">
                    <mxGeometry width="50" height="50" relative="1" as="geometry">
                        <mxPoint x="59" y="440" as="sourcePoint"/>
                        <mxPoint x="799" y="440" as="targetPoint"/>
                    </mxGeometry>
                </mxCell>
                <mxCell id="Sq6Qcy-KbZMsdEfdFCmp-23" value="DA" style="rounded=0;whiteSpace=wrap;html=1;labelBackgroundColor=#FFFFFF;fontSize=10;fontColor=#000000;" parent="1" vertex="1">
                    <mxGeometry x="161" y="480" width="100" height="30" as="geometry"/>
                </mxCell>
                <mxCell id="Sq6Qcy-KbZMsdEfdFCmp-24" value="StateCommitment Contact" style="rounded=0;whiteSpace=wrap;html=1;labelBackgroundColor=#FFFFFF;fontSize=10;fontColor=#000000;" parent="1" vertex="1">
                    <mxGeometry x="509" y="480" width="130" height="30" as="geometry"/>
                </mxCell>
                <mxCell id="Sq6Qcy-KbZMsdEfdFCmp-29" value="Rooch" style="text;html=1;strokeColor=none;fillColor=none;align=center;verticalAlign=middle;whiteSpace=wrap;rounded=0;dashed=1;labelBackgroundColor=#FFFFFF;fontSize=10;fontColor=#000000;" parent="1" vertex="1">
                    <mxGeometry x="739" y="290" width="60" height="30" as="geometry"/>
                </mxCell>
                <mxCell id="Sq6Qcy-KbZMsdEfdFCmp-30" value="L1" style="text;html=1;strokeColor=none;fillColor=none;align=center;verticalAlign=middle;whiteSpace=wrap;rounded=0;dashed=1;labelBackgroundColor=#FFFFFF;fontSize=10;fontColor=#000000;" parent="1" vertex="1">
                    <mxGeometry x="739" y="480" width="60" height="30" as="geometry"/>
                </mxCell>
            </root>
        </mxGraphModel>
    </diagram>
</mxfile>